<svg width="415" height="456" viewBox="0 0 415 456" fill="none" xmlns="http://www.w3.org/2000/svg">
<path d="M25.9359 4.69971e-06C25.9359 4.69971e-06 10.0103 26.1944 11.5232 29.2203C13.0363 32.2464 14.2466 35.2723 14.2466 35.2723C14.2466 35.2723 -1.18598 44.3504 0.327061 45.8634C1.84005 47.3764 35.1261 52.8232 32.4027 54.9414C29.6793 57.0596 18.1805 64.0194 20.2987 66.1376C22.4169 68.2558 55.0978 73.7026 53.2821 76.7287C51.4665 79.7546 42.9937 83.6885 46.9275 87.9249C50.8613 92.1613 56.6107 98.8185 56.6107 98.8185C56.6107 98.8185 78.398 88.8327 82.0292 84.5962C85.6604 80.3599 88.0812 60.3882 90.1994 62.5064C92.3176 64.6246 101.093 76.7628 104.119 77.9562C107.145 79.1494 114.105 78.8469 117.131 80.9651C120.157 83.0833 127.722 83.991 127.419 87.6223C127.117 91.2535 121.972 98.8185 124.998 98.8185C128.024 98.8185 134.984 104.568 139.221 104.871C143.457 105.173 156.166 102.45 157.679 104.871C159.192 107.291 161.311 109.712 158.89 112.133C156.469 114.554 152.233 117.277 153.443 119.093C154.653 120.908 172.507 133.012 171.902 133.92C171.296 134.828 150.72 132.105 146.181 133.92C141.641 135.736 134.379 136.341 135.589 138.459C136.8 140.577 144.668 149.353 146.786 149.353C148.904 149.353 157.377 146.327 157.982 149.353C158.587 152.379 157.679 157.22 160.705 156.615C163.731 156.01 173.747 151.471 171.917 152.984C170.086 154.497 169.652 156.615 172.138 158.431C174.625 160.246 180.374 166.298 179.467 167.811C178.559 169.324 177.651 174.274 177.651 174.274C177.651 174.274 170.086 169.022 166.455 168.719C162.824 168.417 155.561 168.417 154.956 167.206C154.351 165.996 149.812 162.97 147.391 163.575C144.97 164.18 145.575 162.667 144.97 164.18C144.365 165.693 145.878 168.114 145.878 168.114C145.878 168.114 129.537 166.601 127.117 167.811C124.696 169.022 121.67 177.797 119.854 179.31C118.039 180.823 110.776 188.993 110.474 191.112C110.171 193.23 117.736 205.76 119.854 204.488C121.972 203.216 125.906 204.488 125.906 204.488C125.906 204.488 128.327 211.083 129.537 212.899C130.748 214.714 129.235 218.951 130.445 220.766C131.656 222.582 133.471 230.226 135.892 232.153C138.313 234.081 141.944 233.994 142.247 234.037C142.549 234.081 144.365 227.121 143.457 225.608C142.549 224.095 134.682 208.662 137.102 206.847C139.523 205.031 145.273 201.826 145.575 204.488C145.878 207.149 148.904 209.873 147.391 210.781C145.878 211.689 143.457 214.714 143.457 214.714C143.457 214.714 148.904 222.28 148.299 225.911C147.693 229.542 149.207 239.225 149.207 243.159C149.207 247.093 149.812 253.145 147.996 254.355C146.181 255.566 142.549 259.481 143.457 259.339C144.365 259.197 146.483 264.038 148.299 263.736C150.114 263.433 153.14 263.749 153.14 263.749C153.14 263.749 158.285 266.157 157.679 268.577C157.074 270.998 154.653 278.563 155.864 279.774C157.074 280.984 166.455 285.349 166.455 285.349C166.455 285.349 157.377 283.36 158.285 285.349C159.192 287.339 163.731 293.088 164.337 293.693C164.942 294.298 152.535 300.126 147.996 303.567C143.457 307.008 137.102 310.941 138.313 312.454C139.523 313.967 141.944 321.475 143.155 320.899C144.365 320.322 147.391 320.93 147.391 320.93C147.391 320.93 141.417 324.773 139.6 326.742C137.782 328.711 136.419 333.406 136.722 335.224C137.025 337.042 137.176 340.98 136.116 341.737C135.056 342.494 132.026 345.221 131.875 346.584C131.723 347.947 132.481 352.643 132.329 353.249C132.178 353.854 137.328 361.731 135.813 362.791C134.298 363.851 132.632 362.942 132.026 362.791C131.421 362.639 126.574 360.822 125.665 361.579C124.756 362.336 121.878 363.298 121.878 363.298C121.878 363.298 115.062 360.67 113.245 360.822C111.427 360.973 104.611 362.942 103.248 364.608C101.885 366.275 99.1582 369.001 99.7641 369.758C100.37 370.516 102.793 374.151 104.46 374.757C106.126 375.363 108.095 373.242 108.701 375.514C109.306 377.786 112.033 383.239 113.245 382.784C114.456 382.33 117.031 381.421 117.183 380.512C117.334 379.604 117.637 374.302 117.637 374.302C117.637 374.302 122.787 373.091 123.696 373.848C124.605 374.605 127.179 376.12 126.271 376.877C125.362 377.635 123.241 378.089 122.787 377.938C122.333 377.786 118.849 379.755 120.212 380.967C121.575 382.179 126.271 384.607 125.362 385.513C124.453 386.42 122.635 387.328 122.181 387.328C121.727 387.328 119.606 385.463 118.697 386.244C117.789 387.025 119.152 392.327 120.364 393.084C121.575 393.841 133.693 399.749 133.238 400.506C132.784 401.263 131.118 404.141 131.118 404.141C131.118 404.141 122.787 407.019 122.484 405.807C122.181 404.596 121.121 399.9 119 400.506C116.88 401.112 112.942 404.596 111.881 404.141C110.821 403.687 105.52 400.355 104.157 399.294C102.793 398.234 95.2201 397.628 94.0084 398.083C92.7966 398.537 88.8586 400.657 88.8586 400.657C88.8586 400.657 87.1924 405.343 88.1012 406.105C89.01 406.868 92.1908 410.351 95.0686 409.443C97.9465 408.534 102.945 407.625 103.399 407.776C103.854 407.928 106.429 411.26 108.095 410.806C109.761 410.351 112.184 408.079 114.153 409.443C116.122 410.806 123.544 413.986 122.938 415.804C122.333 417.622 120.969 424.438 119.909 424.892C118.849 425.346 112.942 428.718 112.184 429.153C111.427 429.588 105.974 435.495 105.368 437.161C104.762 438.827 105.52 442.311 108.246 444.128C110.973 445.946 113.093 447.366 114.608 447.944C116.122 448.521 130.663 447.006 130.663 447.006C130.663 447.006 136.267 428.718 137.025 429.153C137.782 429.588 138.388 429.89 138.085 430.345C137.782 430.799 139.297 446.912 141.417 447.944C143.538 448.975 144.295 451.55 146.567 452.61C148.839 453.671 152.474 454.277 153.232 454.277C153.989 454.277 158.079 451.247 158.987 451.702C159.896 452.156 161.714 455.034 164.44 455.337C167.167 455.64 170.044 453.822 172.922 453.974C175.8 454.125 178.479 454.277 179.563 453.974C180.647 453.671 184.585 452.156 184.585 452.156C184.585 452.156 182.616 438.07 183.071 437.009C183.525 435.949 186.857 434.283 187.16 433.071C187.463 431.86 190.189 422.317 190.795 421.711C191.401 421.105 199.277 416.864 201.095 415.804C202.913 414.744 207.002 416.41 206.093 418.379C205.185 420.348 200.338 433.98 200.792 434.586C201.247 435.192 189.281 440.493 189.432 442.008C189.584 443.522 188.675 449.733 190.492 450.49C192.31 451.247 196.248 453.671 196.703 452.913C197.157 452.156 199.126 446.097 201.247 445.34C203.367 444.583 208.062 443.977 208.062 443.977C208.062 443.977 210.032 446.552 212.304 445.946C214.576 445.34 213.667 443.674 213.667 442.311C213.667 440.948 211.698 437.161 211.698 437.161C211.698 437.161 214.576 437.161 215.181 437.464C215.787 437.767 217.15 439.281 218.362 439.13C219.574 438.978 220.786 437.009 221.24 436.252C221.694 435.495 223.209 430.799 223.815 431.557C224.421 432.314 228.208 442.159 231.691 440.948C235.175 439.736 238.81 438.221 238.356 437.767C237.901 437.312 229.571 431.708 229.419 430.193C229.268 428.679 229.571 425.952 229.571 425.952C229.571 425.952 237.827 425.195 238.394 423.983C238.962 422.772 236.538 420.197 236.387 419.288C236.235 418.379 225.633 411.563 224.875 410.351C224.118 409.14 223.664 400.809 223.815 400.355C223.966 399.9 225.369 397.022 228.379 398.234C231.388 399.446 234.569 400.203 233.963 402.627C233.357 405.05 233.509 413.684 234.872 414.744C236.235 415.804 243.809 421.105 243.809 421.56C243.809 422.014 241.839 427.506 245.02 429.153C248.201 430.799 253.654 431.557 254.108 433.829C254.563 436.101 256.835 438.373 256.38 439.13C255.926 439.887 254.531 443.371 256.44 442.917C258.349 442.462 262.287 440.342 262.59 439.13C262.893 437.918 262.742 433.223 262.59 432.162C262.439 431.102 254.563 422.772 253.502 420.651C252.442 418.53 249.867 415.35 250.927 413.381C251.988 411.412 256.229 403.535 257.441 402.929C258.652 402.324 258.046 409.291 260.47 409.594C262.893 409.897 266.831 411.715 268.195 410.654C269.558 409.594 271.678 408.988 271.678 408.988C271.678 408.988 274.708 411.109 275.314 411.109C275.919 411.109 280.16 409.291 280.16 409.291C280.16 409.291 281.069 389.146 281.827 389.297C282.584 389.449 288.794 392.327 290.006 392.478C291.217 392.63 298.185 391.721 299.851 392.933C301.517 394.144 307.424 403.232 308.333 403.232C309.242 403.232 312.574 403.384 312.271 404.141C311.968 404.899 310.454 414.441 313.332 414.441C316.209 414.441 320.148 414.289 320.299 413.835C320.451 413.381 322.42 403.535 322.42 403.535C322.42 403.535 328.63 410.654 331.356 410.048C334.082 409.443 338.324 407.171 338.324 407.171C338.324 407.171 340.898 389.449 340.898 388.843C340.898 388.237 338.475 382.33 338.778 380.967C339.081 379.604 339.99 374.757 338.778 375.06C337.566 375.363 329.993 380.21 328.933 380.664C327.872 381.118 325.752 385.918 324.994 386.244C324.237 386.571 316.815 385.205 316.815 385.205L315.906 380.967C315.906 380.967 323.934 375.817 324.692 375.06C325.449 374.302 322.117 370.97 322.117 370.97C322.117 370.97 331.962 372.636 333.022 372.182C334.082 371.727 335.294 367.789 336.052 367.789C336.809 367.789 340.898 368.244 340.898 368.244C340.898 368.244 343.17 371.576 343.625 371.424C344.079 371.273 343.625 375.666 343.625 376.423C343.625 377.18 347.109 380.361 347.714 380.512C348.32 380.664 351.804 377.635 352.107 377.332C352.41 377.029 354.227 370.061 354.227 370.061C354.227 370.061 358.469 375.514 359.529 376.423C360.589 377.332 363.467 375.817 364.376 375.666C365.285 375.514 383.612 359.913 384.975 357.035C386.338 354.157 389.216 346.584 389.216 346.13C389.216 345.675 398.001 337.95 397.698 336.284C397.395 334.618 394.669 327.045 395.729 327.045C396.789 327.045 402.091 325.682 401.788 325.076C401.485 324.47 407.544 293.723 408.755 289.179C409.967 284.634 412.996 273.88 413.754 272.668C414.511 271.457 413.905 264.641 413.754 263.58C413.602 262.52 406.332 263.126 405.878 263.126C405.423 263.126 400.728 268.579 399.667 268.579C398.607 268.579 395.426 265.398 395.426 265.398C395.426 265.398 401.182 260.55 400.576 259.339C399.97 258.128 396.638 251.615 395.729 247.525C394.82 243.435 399.062 222.685 399.667 220.11C400.273 217.535 396.79 204.509 396.638 203.448C396.487 202.388 400.728 194.815 401.333 193.3C401.939 191.785 402.091 185.575 402.394 184.212C402.697 182.849 397.092 174.973 395.881 172.701C394.669 170.429 399.213 163.613 398.153 159.826C397.092 156.039 391.791 148.163 391.034 146.8C390.276 145.437 389.216 132.208 388.307 130.87C387.399 129.533 376.645 118.627 374.524 114.235C372.403 109.842 367.254 97.8764 365.89 96.0587C364.527 94.2411 347.714 68.9463 346.351 67.2801C344.988 65.614 332.719 48.6498 331.205 45.1661C329.69 41.6824 326.661 30.1709 326.661 29.2621C326.661 28.3533 326.509 25.6269 324.994 23.8093C323.48 21.9917 314.232 0 314.232 0L25.9359 4.69971e-06Z" fill="#80CC9E"/>
<mask id="mask0_1_401" style="mask-type:luminance" maskUnits="userSpaceOnUse" x="0" y="0" width="415" height="456">
<path d="M25.9359 4.69971e-06C25.9359 4.69971e-06 10.0103 26.1944 11.5232 29.2203C13.0363 32.2464 14.2466 35.2723 14.2466 35.2723C14.2466 35.2723 -1.18598 44.3504 0.327061 45.8634C1.84005 47.3764 35.1261 52.8232 32.4027 54.9414C29.6793 57.0596 18.1805 64.0194 20.2987 66.1376C22.4169 68.2558 55.0978 73.7026 53.2821 76.7287C51.4665 79.7546 42.9937 83.6885 46.9275 87.9248C50.8613 92.1613 56.6107 98.8185 56.6107 98.8185C56.6107 98.8185 78.398 88.8327 82.0292 84.5962C85.6604 80.3598 88.0812 60.3882 90.1994 62.5064C92.3176 64.6246 101.093 76.7628 104.119 77.9562C107.145 79.1494 114.105 78.8469 117.131 80.965C120.157 83.0833 127.722 83.991 127.419 87.6223C127.117 91.2535 121.972 98.8185 124.998 98.8185C128.024 98.8185 134.984 104.568 139.221 104.871C143.457 105.173 156.166 102.45 157.679 104.871C159.192 107.291 161.311 109.712 158.89 112.133C156.469 114.554 152.233 117.277 153.443 119.093C154.653 120.908 172.507 133.012 171.902 133.92C171.296 134.828 150.72 132.105 146.181 133.92C141.641 135.736 134.379 136.341 135.589 138.459C136.8 140.577 144.668 149.353 146.786 149.353C148.904 149.353 157.377 146.327 157.982 149.353C158.587 152.379 157.679 157.22 160.705 156.615C163.731 156.01 173.747 151.471 171.917 152.984C170.086 154.497 169.652 156.615 172.138 158.431C174.625 160.246 180.374 166.298 179.467 167.811C178.559 169.324 177.651 174.274 177.651 174.274C177.651 174.274 170.086 169.022 166.455 168.719C162.824 168.417 155.561 168.417 154.956 167.206C154.351 165.996 149.812 162.97 147.391 163.575C144.97 164.18 145.575 162.667 144.97 164.18C144.365 165.693 145.878 168.114 145.878 168.114C145.878 168.114 129.537 166.601 127.117 167.811C124.696 169.022 121.67 177.797 119.854 179.31C118.039 180.823 110.776 188.993 110.474 191.112C110.171 193.23 117.736 205.76 119.854 204.488C121.972 203.216 125.906 204.488 125.906 204.488C125.906 204.488 128.327 211.083 129.537 212.899C130.748 214.714 129.235 218.951 130.445 220.766C131.656 222.582 133.471 230.226 135.892 232.153C138.313 234.081 141.944 233.994 142.247 234.037C142.549 234.081 144.365 227.121 143.457 225.608C142.549 224.095 134.682 208.662 137.102 206.847C139.523 205.031 145.273 201.826 145.575 204.488C145.878 207.149 148.904 209.873 147.391 210.781C145.878 211.688 143.457 214.714 143.457 214.714C143.457 214.714 148.904 222.28 148.299 225.911C147.693 229.542 149.207 239.225 149.207 243.159C149.207 247.093 149.812 253.145 147.996 254.355C146.181 255.566 142.549 259.481 143.457 259.339C144.365 259.197 146.483 264.038 148.299 263.736C150.114 263.433 153.14 263.749 153.14 263.749C153.14 263.749 158.285 266.157 157.679 268.577C157.074 270.998 154.653 278.563 155.864 279.774C157.074 280.984 166.455 285.349 166.455 285.349C166.455 285.349 157.377 283.36 158.285 285.349C159.192 287.339 163.731 293.088 164.337 293.693C164.942 294.298 152.535 300.126 147.996 303.567C143.457 307.008 137.102 310.941 138.313 312.454C139.523 313.967 141.944 321.475 143.155 320.899C144.365 320.322 147.391 320.93 147.391 320.93C147.391 320.93 141.417 324.773 139.6 326.742C137.782 328.711 136.419 333.406 136.722 335.224C137.025 337.042 137.176 340.98 136.116 341.737C135.056 342.494 132.026 345.221 131.875 346.584C131.723 347.947 132.481 352.643 132.329 353.249C132.178 353.854 137.328 361.731 135.813 362.791C134.298 363.851 132.632 362.942 132.026 362.791C131.421 362.639 126.574 360.822 125.665 361.579C124.756 362.336 121.878 363.298 121.878 363.298C121.878 363.298 115.062 360.67 113.245 360.822C111.427 360.973 104.611 362.942 103.248 364.608C101.885 366.275 99.1582 369.001 99.7641 369.758C100.37 370.516 102.793 374.151 104.46 374.757C106.126 375.363 108.095 373.242 108.701 375.514C109.306 377.786 112.033 383.239 113.245 382.784C114.456 382.33 117.031 381.421 117.183 380.512C117.334 379.604 117.637 374.302 117.637 374.302C117.637 374.302 122.787 373.091 123.696 373.848C124.605 374.605 127.179 376.12 126.271 376.877C125.362 377.635 123.241 378.089 122.787 377.938C122.333 377.786 118.849 379.755 120.212 380.967C121.575 382.179 126.271 384.607 125.362 385.513C124.453 386.42 122.635 387.328 122.181 387.328C121.727 387.328 119.606 385.463 118.697 386.244C117.789 387.025 119.152 392.327 120.364 393.084C121.575 393.841 133.693 399.749 133.238 400.506C132.784 401.263 131.118 404.141 131.118 404.141C131.118 404.141 122.787 407.019 122.484 405.807C122.181 404.596 121.121 399.9 119 400.506C116.88 401.112 112.942 404.596 111.881 404.141C110.821 403.687 105.52 400.355 104.157 399.294C102.793 398.234 95.2201 397.628 94.0084 398.083C92.7966 398.537 88.8586 400.657 88.8586 400.657C88.8586 400.657 87.1924 405.343 88.1012 406.105C89.01 406.868 92.1908 410.351 95.0686 409.443C97.9465 408.534 102.945 407.625 103.399 407.776C103.854 407.928 106.429 411.26 108.095 410.806C109.761 410.351 112.184 408.079 114.153 409.443C116.122 410.806 123.544 413.986 122.938 415.804C122.333 417.622 120.969 424.438 119.909 424.892C118.849 425.346 112.942 428.718 112.184 429.153C111.427 429.588 105.974 435.495 105.368 437.161C104.762 438.827 105.52 442.311 108.246 444.128C110.973 445.946 113.093 447.366 114.608 447.944C116.122 448.521 130.663 447.006 130.663 447.006C130.663 447.006 136.267 428.718 137.025 429.153C137.782 429.588 138.388 429.89 138.085 430.345C137.782 430.799 139.297 446.912 141.417 447.944C143.538 448.975 144.295 451.55 146.567 452.61C148.839 453.671 152.474 454.277 153.232 454.277C153.989 454.277 158.079 451.247 158.987 451.702C159.896 452.156 161.714 455.034 164.44 455.337C167.167 455.64 170.044 453.822 172.922 453.974C175.8 454.125 178.479 454.277 179.563 453.974C180.647 453.671 184.585 452.156 184.585 452.156C184.585 452.156 182.616 438.07 183.071 437.009C183.525 435.949 186.857 434.283 187.16 433.071C187.463 431.86 190.189 422.317 190.795 421.711C191.401 421.105 199.277 416.864 201.095 415.804C202.913 414.744 207.002 416.41 206.093 418.379C205.185 420.348 200.338 433.98 200.792 434.586C201.247 435.192 189.281 440.493 189.432 442.008C189.584 443.522 188.675 449.733 190.492 450.49C192.31 451.247 196.248 453.671 196.703 452.913C197.157 452.156 199.126 446.097 201.247 445.34C203.367 444.583 208.062 443.977 208.062 443.977C208.062 443.977 210.032 446.552 212.304 445.946C214.576 445.34 213.667 443.674 213.667 442.311C213.667 440.948 211.698 437.161 211.698 437.161C211.698 437.161 214.576 437.161 215.181 437.464C215.787 437.767 217.15 439.281 218.362 439.13C219.574 438.978 220.786 437.009 221.24 436.252C221.694 435.495 223.209 430.799 223.815 431.557C224.421 432.314 228.208 442.159 231.691 440.948C235.175 439.736 238.81 438.221 238.356 437.767C237.901 437.312 229.571 431.708 229.419 430.193C229.268 428.679 229.571 425.952 229.571 425.952C229.571 425.952 237.827 425.195 238.394 423.983C238.962 422.772 236.538 420.197 236.387 419.288C236.235 418.379 225.633 411.563 224.875 410.351C224.118 409.14 223.664 400.809 223.815 400.355C223.966 399.9 225.369 397.022 228.379 398.234C231.388 399.446 234.569 400.203 233.963 402.627C233.357 405.05 233.509 413.684 234.872 414.744C236.235 415.804 243.809 421.105 243.809 421.56C243.809 422.014 241.839 427.506 245.02 429.153C248.201 430.799 253.654 431.557 254.108 433.829C254.563 436.101 256.835 438.373 256.38 439.13C255.926 439.887 254.531 443.371 256.44 442.917C258.349 442.462 262.287 440.342 262.59 439.13C262.893 437.918 262.742 433.223 262.59 432.162C262.439 431.102 254.563 422.772 253.502 420.651C252.442 418.53 249.867 415.35 250.927 413.381C251.988 411.412 256.229 403.535 257.441 402.929C258.652 402.324 258.046 409.291 260.47 409.594C262.893 409.897 266.831 411.715 268.195 410.654C269.558 409.594 271.678 408.988 271.678 408.988C271.678 408.988 274.708 411.109 275.314 411.109C275.919 411.109 280.16 409.291 280.16 409.291C280.16 409.291 281.069 389.146 281.827 389.297C282.584 389.449 288.794 392.327 290.006 392.478C291.217 392.63 298.185 391.721 299.851 392.933C301.517 394.144 307.424 403.232 308.333 403.232C309.242 403.232 312.574 403.384 312.271 404.141C311.968 404.899 310.454 414.441 313.332 414.441C316.209 414.441 320.148 414.289 320.299 413.835C320.451 413.381 322.42 403.535 322.42 403.535C322.42 403.535 328.63 410.654 331.356 410.048C334.082 409.443 338.323 407.171 338.323 407.171C338.323 407.171 340.898 389.449 340.898 388.843C340.898 388.237 338.475 382.33 338.778 380.967C339.081 379.604 339.99 374.757 338.778 375.06C337.566 375.363 329.993 380.21 328.933 380.664C327.872 381.118 325.752 385.918 324.994 386.244C324.237 386.571 316.815 385.205 316.815 385.205L315.906 380.967C315.906 380.967 323.934 375.817 324.692 375.06C325.449 374.302 322.117 370.97 322.117 370.97C322.117 370.97 331.962 372.636 333.022 372.182C334.082 371.727 335.294 367.789 336.052 367.789C336.809 367.789 340.898 368.244 340.898 368.244C340.898 368.244 343.17 371.576 343.625 371.424C344.079 371.273 343.625 375.666 343.625 376.423C343.625 377.18 347.109 380.361 347.714 380.512C348.32 380.664 351.804 377.635 352.107 377.332C352.41 377.029 354.227 370.061 354.227 370.061C354.227 370.061 358.469 375.514 359.529 376.423C360.589 377.332 363.467 375.817 364.376 375.666C365.285 375.514 383.612 359.913 384.975 357.035C386.338 354.157 389.216 346.584 389.216 346.13C389.216 345.675 398.001 337.95 397.698 336.284C397.395 334.618 394.669 327.045 395.729 327.045C396.789 327.045 402.091 325.682 401.788 325.076C401.485 324.47 407.544 293.723 408.755 289.179C409.967 284.634 412.996 273.88 413.754 272.668C414.511 271.457 413.905 264.641 413.754 263.58C413.602 262.52 406.332 263.126 405.878 263.126C405.423 263.126 400.728 268.579 399.667 268.579C398.607 268.579 395.426 265.398 395.426 265.398C395.426 265.398 401.182 260.55 400.576 259.339C399.97 258.128 396.638 251.615 395.729 247.525C394.82 243.435 399.062 222.685 399.667 220.11C400.273 217.535 396.79 204.509 396.638 203.448C396.487 202.388 400.728 194.815 401.333 193.3C401.939 191.785 402.091 185.575 402.394 184.212C402.697 182.849 397.092 174.973 395.881 172.701C394.669 170.429 399.213 163.613 398.153 159.826C397.092 156.039 391.791 148.163 391.034 146.8C390.276 145.437 389.216 132.208 388.307 130.87C387.399 129.533 376.644 118.627 374.524 114.235C372.403 109.842 367.254 97.8764 365.89 96.0587C364.527 94.2411 347.714 68.9463 346.351 67.2801C344.988 65.614 332.719 48.6498 331.205 45.1661C329.69 41.6824 326.661 30.1709 326.661 29.2621C326.661 28.3533 326.509 25.6269 324.994 23.8093C323.48 21.9917 314.232 0 314.232 0L25.9359 4.69971e-06Z" fill="white"/>
</mask>
<g mask="url(#mask0_1_401)">
<path d="M133.5 61C119.1 61.4 111 75.3333 109.5 82L71.5 121.5L-8 70V-2H306L316 0.500471C303 -0.499529 287.5 4 277.5 8.5C267.5 13 258 17.0002 247 11.5002C236 6.00019 234 5.5 228.5 11C223 16.5 213.5 11.5 206 11C198.5 10.5 187 21 181 24C175 27 170 31 171.5 32.5C173 34 178 43 165 47C155 52.5 156.5 55.5 159 60.5C161.5 65.5 149.5 66.5 145 64.5C141.4 62.9 135.833 61.5 133.5 61Z" fill="#5C9974"/>
<path d="M227.735 237.514C228.157 234.322 230.852 231.626 230.702 228.41C230.553 225.206 227.654 222.862 224.82 221.36C222.52 220.141 219.98 219.085 218.158 217.3C216.823 220.115 214.955 223.665 213.441 225.454C210.5 228.93 206.572 232.264 206.4 236.815C206.306 239.298 207.397 241.654 208.464 243.898C209.202 245.45 209.94 247.001 210.677 248.553C210.972 249.172 211.283 249.813 211.818 250.242C212.199 250.547 212.666 250.721 213.124 250.89C215.139 251.635 217.183 252.386 219.323 252.585C221.463 252.783 223.745 252.367 225.4 250.996C227.557 249.209 228.205 245.111 228.554 241.994C227.875 240.604 227.52 239.136 227.735 237.514Z" stroke="#005F25" stroke-width="0.938667" stroke-miterlimit="10"/>
<path d="M314.114 0H310.936C304.054 1.18183 297.011 1.55767 290.314 3.52277C276.648 7.53229 262.944 18.0814 249.721 12.7943C243.727 10.398 237.408 4.86746 231.806 8.07356C229.868 9.18269 228.58 11.1706 226.721 12.4087C219.964 16.9106 211.015 9.47354 203.041 11.0053C201.285 11.3426 199.666 12.1077 198.115 13.0161C198.684 14.996 199.175 17.0139 199.774 18.971C201.245 23.7769 203.912 28.7941 208.657 30.4509C210.834 31.2109 213.226 31.169 215.404 31.9249C219.835 33.4627 222.483 37.8869 224.759 41.9873C226.709 45.4985 228.658 49.0098 230.607 52.521C231.436 54.0127 232.284 55.5737 232.361 57.2781C232.457 59.395 231.358 61.3516 230.491 63.2852C227.643 69.6367 227.112 76.9977 229.019 83.6922C229.599 85.7288 230.452 87.7841 232.055 89.1685C234.203 91.0248 237.234 91.3234 240.035 91.7919C244.289 92.5036 248.781 94.0334 251.178 97.6194C253.679 101.36 253.237 106.264 252.698 110.732C251.646 119.458 250.593 128.184 249.541 136.911C249.393 138.131 249.268 139.459 249.912 140.505C250.22 141.004 250.656 141.364 251.161 141.635" stroke="#005F25" stroke-width="0.938667" stroke-miterlimit="10"/>
<path d="M251.161 141.635C252.062 142.118 253.188 142.309 254.227 142.44C261.211 143.325 269.493 143.735 273.992 138.32C274.93 137.192 275.64 135.858 276.764 134.915C279.732 132.426 284.202 133.551 287.807 134.969C293.317 137.138 298.67 139.704 303.813 142.64C311.199 146.857 318.47 151.957 326.905 153.054C327.25 153.098 327.596 153.136 327.942 153.168M327.942 153.168C327.983 153.167 328.023 153.163 328.064 153.163M327.942 153.168C330.371 153.391 332.823 153.312 335.264 153.233C344.995 152.918 354.727 152.603 364.458 152.288C368.507 152.156 372.627 152.013 376.457 150.692C381.763 148.863 385.923 145.027 389.883 140.939" stroke="#005F25" stroke-width="0.938667" stroke-miterlimit="10"/>
<path d="M170.414 110.263C171.059 109.653 171.639 108.97 171.817 108.116C172.06 106.952 171.494 105.788 170.945 104.732C169.577 102.103 168.208 99.4733 166.84 96.8438C166.596 96.3742 166.338 95.8964 166.067 95.4205" stroke="#005F25" stroke-width="0.938667" stroke-miterlimit="10"/>
<path d="M156.702 121.969C157.64 121.457 158.47 120.739 159.28 120.03C162.804 116.943 166.329 113.857 169.853 110.77C170.041 110.606 170.23 110.437 170.415 110.263" stroke="#005F25" stroke-width="0.938667" stroke-miterlimit="10"/>
<path d="M166.067 95.4205C164.377 92.4518 162.13 89.5665 158.835 89.3486C154.302 89.0488 151.058 94.0323 146.584 94.8192C143.969 90.4067 141.257 85.3075 142.745 80.399C143.249 78.7351 144.207 77.2524 144.964 75.6873C146.539 72.4325 147.224 68.8804 147.553 65.26C146.496 65.1211 145.45 64.8965 144.429 64.5854C141.623 63.7305 139.022 62.2511 136.164 61.5902C130.721 60.3313 124.907 62.2416 120.423 65.5749C115.896 68.941 112.543 73.7931 110.814 79.1576" stroke="#005F25" stroke-width="0.938667" stroke-miterlimit="10"/>
<path d="M170.945 104.732C171.494 105.788 172.06 106.952 171.817 108.116C171.639 108.97 171.059 109.653 170.414 110.263C175.825 109.173 182.262 108.171 187.552 109.088C189.511 109.428 191.434 110.024 193.42 110.119C197.891 110.334 202.212 107.906 205.074 104.464C207.936 101.021 209.499 96.6706 210.423 92.2904C210.533 91.7681 210.633 91.2091 210.435 90.7133C210.223 90.1836 209.713 89.835 209.197 89.5913C207.329 88.7086 205.172 88.8095 203.114 88.625C201.056 88.4406 198.808 87.8005 197.742 86.0303C197.188 85.1091 197.038 84.0075 196.662 83C195.024 78.6039 189.17 76.9429 184.795 78.636C180.42 80.3292 177.427 84.4444 175.501 88.722C175.033 89.7604 174.599 90.8426 173.835 91.6876C172.109 93.5987 168.454 94.1613 166.067 95.4205C166.338 95.8964 166.596 96.3742 166.84 96.8438C168.208 99.4733 169.577 102.103 170.945 104.732Z" stroke="#005F25" stroke-width="0.938667" stroke-miterlimit="10"/>
<path d="M178.15 171.404C178.872 171.641 179.603 171.822 180.353 171.877C184.272 172.165 187.519 169.101 191.069 167.416C197.393 164.414 205.632 166.182 210.169 171.513C210.66 172.091 211.109 172.704 211.539 173.331C212.891 173.139 214.097 172.175 214.939 171.061C215.918 169.764 216.555 168.239 217.494 166.911C218.629 165.305 220.18 164.028 221.849 162.985C226.444 160.112 232.029 158.869 236.14 155.337C237.863 153.857 239.261 152.023 241.017 150.581C243.676 148.399 248.74 145.06 251.161 141.635C250.656 141.364 250.22 141.004 249.912 140.505C249.268 139.459 249.393 138.131 249.541 136.911C250.593 128.184 251.646 119.458 252.698 110.732C253.237 106.264 253.679 101.36 251.178 97.6194C248.78 94.0334 244.289 92.5035 240.035 91.7918C237.234 91.3234 234.203 91.0248 232.055 89.1685C230.452 87.7841 229.599 85.7288 229.019 83.6922C227.112 76.9977 227.643 69.6367 230.491 63.2852C231.358 61.3516 232.457 59.395 232.361 57.2781C232.284 55.5737 231.436 54.0127 230.607 52.521C228.658 49.0098 226.709 45.4985 224.759 41.9873C222.483 37.8869 219.835 33.4627 215.404 31.9248C213.226 31.169 210.834 31.2108 208.657 30.4509C203.912 28.7941 201.245 23.7769 199.774 18.971C199.175 17.0139 198.684 14.996 198.115 13.0161C197.242 13.5273 196.39 14.0829 195.549 14.6358C188.293 19.4072 181.037 24.1786 173.781 28.9499C172.806 29.5916 171.743 30.3596 171.543 31.5101C171.264 33.1099 172.757 34.3998 173.472 35.8576C175.704 40.4051 170.262 44.8076 165.665 46.9366C161.069 49.0656 155.537 53.2498 157.545 57.9006C158.24 59.5108 159.827 61.1452 159.049 62.717C158.668 63.4861 157.823 63.8955 157.019 64.1959C154.015 65.3187 150.733 65.6773 147.554 65.2599C147.225 68.8804 146.54 72.4324 144.965 75.6872C144.207 77.2523 143.25 78.7351 142.745 80.3989C141.257 85.3075 143.969 90.4066 146.584 94.8191C151.059 94.0323 154.302 89.0487 158.835 89.3486" stroke="#005F25" stroke-width="0.938667" stroke-miterlimit="10"/>
<path d="M173.836 91.6876C174.599 90.8426 175.033 89.7604 175.501 88.722C177.427 84.4444 180.42 80.3292 184.795 78.636C189.171 76.9429 195.025 78.6039 196.663 83C197.038 84.0075 197.188 85.1091 197.743 86.0302C198.808 87.8005 201.057 88.4406 203.114 88.625C205.172 88.8095 207.329 88.7086 209.197 89.5913C209.713 89.835 210.223 90.1836 210.435 90.7133C210.633 91.2091 210.534 91.7681 210.423 92.2904C209.499 96.6706 207.936 101.021 205.075 104.464C202.213 107.906 197.891 110.334 193.42 110.119C191.434 110.024 189.511 109.428 187.553 109.088C182.262 108.171 175.826 109.173 170.415 110.263C170.23 110.437 170.041 110.606 169.853 110.77C166.329 113.857 162.804 116.943 159.28 120.03C158.47 120.739 157.64 121.457 156.702 121.969" stroke="#005F25" stroke-width="0.938667" stroke-miterlimit="10"/>
<path d="M242.302 269.632C243.749 270.78 245.546 271.405 247.302 271.998C251.888 273.546 256.474 275.094 261.059 276.642C261.551 276.808 262.075 276.976 262.579 276.854C263.181 276.709 263.608 276.189 263.988 275.701C266.676 272.25 269.364 268.8 272.051 265.35C275.175 261.34 278.477 256.697 277.719 251.672C276.916 246.345 271.819 242.768 266.826 240.746C266.044 240.43 265.194 240.086 264.768 239.358C264.153 238.306 264.689 236.978 264.609 235.762C264.504 234.156 263.321 232.822 262.941 231.258C262.263 228.473 264.196 225.808 265.042 223.07C266.945 216.907 262.188 209.607 255.782 208.858C263.801 199.793 272.645 191.459 282.169 183.992C283.851 182.673 285.569 181.367 286.931 179.719C287.747 178.732 288.446 177.611 289.496 176.877C292.466 174.799 296.488 176.666 299.647 178.443C302.805 180.22 307.061 181.799 309.745 179.364C310.834 178.376 311.362 176.929 311.852 175.542C312.766 172.956 313.679 170.37 314.593 167.784C315.774 164.44 316.987 161.037 319.126 158.207C321.24 155.411 324.443 153.218 327.942 153.168C327.596 153.136 327.25 153.098 326.905 153.054C318.47 151.957 311.2 146.857 303.813 142.64C298.671 139.704 293.317 137.138 287.807 134.969C284.202 133.551 279.732 132.426 276.764 134.915C275.64 135.858 274.93 137.192 273.992 138.32C269.493 143.735 261.211 143.325 254.227 142.44C253.188 142.309 252.063 142.118 251.161 141.635C248.74 145.06 243.676 148.399 241.017 150.581C239.261 152.023 237.863 153.857 236.14 155.337C232.029 158.869 226.443 160.112 221.848 162.985C220.18 164.028 218.629 165.305 217.493 166.911C216.555 168.239 215.918 169.764 214.938 171.061C214.097 172.175 212.891 173.139 211.539 173.331C212.917 175.335 214.101 177.492 215.833 179.194C218.595 181.908 223.049 184.281 222.399 188.098C221.456 193.632 210.895 193.4 210.722 199.011C210.651 201.316 212.583 203.116 213.658 205.156C215.422 208.503 214.93 212.774 217.018 215.929C217.352 216.432 217.736 216.885 218.158 217.3" stroke="#005F25" stroke-width="0.938667" stroke-miterlimit="10"/>
<path d="M228.554 241.994C230.353 245.677 234.444 248.797 236.337 252.702C238.954 258.103 237.51 265.528 242.06 269.442C242.138 269.509 242.222 269.568 242.302 269.632" stroke="#005F25" stroke-width="0.938667" stroke-miterlimit="10"/>
<path d="M218.158 217.3C219.98 219.085 222.52 220.141 224.82 221.36C227.653 222.862 230.553 225.206 230.702 228.41C230.852 231.626 228.157 234.322 227.735 237.514C227.52 239.136 227.875 240.604 228.553 241.994" stroke="#005F25" stroke-width="0.938667" stroke-miterlimit="10"/>
<path d="M381.855 350.459C382.821 352.21 384.185 353.8 385.626 355.302" stroke="#005F25" stroke-width="0.938667" stroke-miterlimit="10"/>
<path d="M402.508 319.58C402.458 319.568 402.408 319.556 402.358 319.543C398.702 318.526 395.84 315.741 392.499 313.943C389.158 312.144 384.426 311.621 382.04 314.571C379.92 312.33 377.716 310.03 374.881 308.815C372.045 307.599 368.384 307.751 366.279 310.005C363.788 312.673 363.479 317.884 359.892 318.393C360.692 319.528 361.572 320.968 362.338 321.975C362.64 322.371 362.955 322.801 362.98 323.3C363.018 324.048 362.399 324.656 361.791 325.094C359.533 326.721 356.383 328.05 356.151 330.823C355.951 333.211 358.221 335.106 360.486 335.887C362.752 336.668 365.255 336.819 367.326 338.025C370.332 339.776 372.346 343.653 375.825 343.7C377.272 343.719 379.039 343.129 379.954 344.251C380.423 344.825 380.431 345.629 380.507 346.366C380.659 347.835 381.154 349.189 381.855 350.459" stroke="#005F25" stroke-width="0.938667" stroke-miterlimit="10"/>
<path d="M155.418 278.137C157.334 278.74 159.295 279.025 161.255 278.624C163.409 278.183 165.305 276.954 167.144 275.75C170.887 273.298 175.069 270.054 174.94 265.581C174.902 264.262 174.469 262.938 174.728 261.644C175.179 259.401 177.519 258.069 179.734 257.496C181.225 257.111 182.849 256.943 184.273 257.529C187.376 258.808 188.078 262.774 188.687 266.074C189.297 269.373 191.139 273.316 194.494 273.227C198.093 273.131 199.558 268.658 202.069 266.078C205.919 262.122 213.649 263.466 215.938 268.489C216.582 269.902 216.84 271.488 217.647 272.815C218.651 274.466 220.388 275.524 222.136 276.348C225.73 278.039 229.858 279.008 233.69 277.963C237.081 277.039 240.694 273.194 242.302 269.632C242.222 269.568 242.138 269.509 242.06 269.442C237.51 265.528 238.954 258.103 236.337 252.702C234.444 248.798 230.353 245.677 228.554 241.994C228.205 245.111 227.557 249.209 225.4 250.996C223.745 252.367 221.463 252.783 219.323 252.585C217.183 252.386 215.139 251.635 213.124 250.89C212.666 250.721 212.199 250.547 211.818 250.242C211.283 249.813 210.972 249.172 210.677 248.553C209.94 247.001 209.202 245.45 208.464 243.898C207.397 241.654 206.306 239.298 206.4 236.815C206.572 232.264 210.5 228.93 213.441 225.454C214.955 223.665 216.823 220.115 218.158 217.3C217.736 216.885 217.352 216.432 217.018 215.929C214.93 212.774 215.422 208.503 213.658 205.156C212.583 203.116 210.651 201.316 210.722 199.011C210.895 193.4 221.456 193.632 222.399 188.098C223.049 184.281 218.595 181.908 215.833 179.194C214.101 177.493 212.917 175.335 211.539 173.331M211.539 173.331C211.317 173.362 211.092 173.375 210.863 173.362M211.539 173.331C211.109 172.704 210.66 172.091 210.169 171.513C205.632 166.182 197.393 164.414 191.069 167.416C187.519 169.101 184.272 172.165 180.353 171.877C179.603 171.822 178.871 171.641 178.149 171.404" stroke="#005F25" stroke-width="0.938667" stroke-miterlimit="10"/>
<path d="M343.506 371.424C343.552 371.409 343.586 371.45 343.614 371.518C343.706 370.516 343.844 369.498 344.047 368.454C344.27 367.306 344.661 366.156 345.423 365.269C347.358 363.017 350.803 363.195 353.696 362.528C359.313 361.232 363.319 356.403 366.759 351.777C367.555 350.707 368.391 349.592 369.586 348.999C370.43 348.581 371.39 348.458 372.331 348.421C374.993 348.315 379.224 349.279 381.855 350.459C381.154 349.189 380.659 347.835 380.507 346.366C380.431 345.629 380.422 344.824 379.954 344.251C379.039 343.129 377.272 343.719 375.825 343.7C372.346 343.653 370.332 339.776 367.326 338.025C365.255 336.819 362.752 336.667 360.486 335.887C358.221 335.106 355.951 333.211 356.151 330.823C356.383 328.05 359.533 326.721 361.791 325.094C362.399 324.656 363.018 324.048 362.98 323.299C362.955 322.801 362.64 322.371 362.338 321.975C361.572 320.968 360.692 319.528 359.892 318.393C359.874 318.395 359.857 318.4 359.838 318.402C358.603 318.559 357.335 318.017 356.123 318.297C353.561 318.889 353.154 322.319 351.611 324.448C349.309 327.624 344.659 327.612 340.75 327.282C336.143 326.894 331.448 326.485 327.182 324.701C324.101 323.413 321.246 321.271 319.481 318.489C316.678 318.604 311.273 318.936 308.543 319.845C306.059 320.673 303.907 320.231 302.717 319.829C298.315 319.595 293.914 319.36 289.512 319.125C287.959 312.938 291.591 305.3 287.319 300.562C285.825 298.904 283.657 298.056 281.572 297.263C274.772 294.677 267.709 292.048 260.45 292.53C253.192 293.011 245.661 297.519 244.105 304.625C243.799 306.023 243.707 307.532 242.893 308.709C241.677 310.468 239.25 310.933 237.735 312.442C235.58 314.588 235.851 318.086 236.274 321.097C237.098 326.974 237.923 332.852 238.748 338.729C239.665 345.266 240.242 352.88 235.523 357.495C235.465 357.45 235.404 357.41 235.346 357.366C234.942 359.428 236.958 361.541 238.538 362.992C240.184 364.502 242.177 365.741 243.258 367.697C245.092 371.014 243.719 375.189 244.557 378.885C245.437 382.761 248.589 385.62 251.093 388.705C255.213 393.781 257.756 400.072 258.504 406.563C258.811 408.054 259.291 409.461 260.351 409.594" stroke="#005F25" stroke-width="0.938667" stroke-miterlimit="10"/>
<path d="M257.322 402.929C258.004 402.589 258.11 404.645 258.504 406.563C257.756 400.072 255.213 393.781 251.093 388.705C248.589 385.62 245.437 382.761 244.557 378.885C243.719 375.189 245.092 371.014 243.258 367.697C242.177 365.741 240.184 364.502 238.538 362.992C236.958 361.541 234.942 359.428 235.346 357.366C231.455 354.462 226.434 353.11 221.612 353.681C220.669 353.793 219.614 354.058 219.156 354.889C218.698 355.72 212.47 359.205 208.456 357.847C204.442 356.489 200.282 354.508 196.158 355.481C195.179 355.713 194.167 356.109 193.199 355.835C191.479 355.348 191.014 353.206 190.443 351.511C188.346 345.291 180.314 341.895 174.391 344.725C174.072 340.629 168.074 339.488 164.615 341.703C161.156 343.919 159.298 347.885 156.53 350.92C153.761 353.955 148.794 355.996 145.674 353.324C144.538 352.351 143.896 350.938 143.013 349.731C140.708 346.584 136.935 345.061 132.986 344.536M187.528 378.866C186.322 380.185 184.612 380.895 183.022 381.711C180.141 383.19 177.5 385.134 175.231 387.445C172.978 389.741 170.421 392.659 167.254 392.096C165.656 391.811 164.354 390.646 163.358 389.364C161.001 386.333 159.618 382.212 156.138 380.59C152.218 378.763 148.99 377.661 150.531 372.361C151.442 369.231 154.194 365.998 157.608 365.77C160.864 365.552 163.938 367.564 167.153 367.746C171.63 367.999 176.26 362.494 180.654 364.881C183.408 366.378 183.664 370.413 186.093 372.394C186.763 372.939 187.583 373.314 188.126 373.985C189.251 375.374 188.734 377.547 187.528 378.866Z" stroke="#005F25" stroke-width="0.938667" stroke-miterlimit="10"/>
<path d="M308.543 319.845C311.272 318.936 316.678 318.604 319.481 318.489C318.802 317.419 318.279 316.258 317.975 315.009C318.15 312.372 321.882 312.246 324.464 311.681C327.967 310.915 330.558 308.015 332.706 305.144C337.334 298.956 341.249 291.391 339.834 283.795C338.419 276.199 329.309 270.004 322.706 274.017C319.356 276.053 317.431 280.092 313.807 281.585C310.459 282.964 305.612 282.361 304.205 285.698C303.291 287.866 304.622 290.248 305.538 292.416C307.555 297.194 307.561 302.785 305.553 307.567C303.863 311.59 300.804 316.086 303.019 319.845C302.918 319.84 302.817 319.835 302.717 319.829C303.906 320.231 306.058 320.673 308.543 319.845Z" stroke="#005F25" stroke-width="0.938667" stroke-miterlimit="10"/>
<path d="M186.093 372.394C183.663 370.413 183.408 366.378 180.653 364.881C176.26 362.494 171.63 367.999 167.152 367.746C163.937 367.564 160.864 365.552 157.608 365.77C154.194 365.998 151.441 369.231 150.531 372.361C148.99 377.661 152.218 378.763 156.138 380.59C159.618 382.212 161.001 386.333 163.357 389.364C164.354 390.646 165.656 391.811 167.254 392.096C170.421 392.659 172.978 389.741 175.231 387.445C177.5 385.134 180.141 383.19 183.022 381.711C184.612 380.895 186.322 380.185 187.527 378.866C188.733 377.547 189.25 375.374 188.126 373.985C187.583 373.314 186.762 372.939 186.093 372.394Z" stroke="#005F25" stroke-width="0.938667" stroke-miterlimit="10"/>
<path d="M132.986 344.537C136.935 345.061 140.708 346.584 143.013 349.731C143.896 350.938 144.538 352.351 145.674 353.324C148.794 355.996 153.761 353.955 156.53 350.92C159.298 347.885 161.156 343.919 164.615 341.703C168.074 339.488 174.072 340.629 174.391 344.725C180.314 341.895 188.346 345.291 190.443 351.511C191.014 353.206 191.479 355.348 193.199 355.835C194.167 356.109 195.179 355.713 196.158 355.482C200.282 354.508 204.442 356.489 208.456 357.847C212.47 359.205 218.698 355.72 219.156 354.889C219.614 354.058 220.669 353.793 221.612 353.681C226.434 353.11 231.455 354.462 235.346 357.366M235.346 357.366C235.363 357.28 235.377 357.194 235.402 357.109M235.346 357.366C235.404 357.41 235.465 357.45 235.523 357.495C240.242 352.88 239.665 345.266 238.748 338.729C237.923 332.852 237.098 326.974 236.274 321.097C235.851 318.086 235.58 314.588 237.735 312.442C239.25 310.933 241.677 310.468 242.893 308.709C243.707 307.532 243.799 306.023 244.105 304.625C245.661 297.519 253.192 293.011 260.45 292.53C260.623 292.518 260.795 292.517 260.967 292.509C261.136 290.792 261.589 288.577 262.647 285.931C264.003 282.539 263.081 279.955 262.076 276.889C261.733 276.864 261.389 276.754 261.06 276.642C256.474 275.094 251.888 273.546 247.302 271.998C245.546 271.405 243.749 270.781 242.302 269.632C240.695 273.194 237.082 277.039 233.69 277.963C229.858 279.008 225.73 278.039 222.137 276.348C220.388 275.524 218.651 274.466 217.647 272.815C216.84 271.488 216.583 269.902 215.938 268.489C213.649 263.466 205.919 262.122 202.069 266.078C199.558 268.658 198.093 273.131 194.494 273.227C191.139 273.316 189.297 269.373 188.687 266.074C188.078 262.774 187.376 258.808 184.273 257.529C182.85 256.943 181.226 257.111 179.735 257.496C177.52 258.069 175.179 259.401 174.729 261.644C174.469 262.938 174.902 264.262 174.94 265.581C175.069 270.054 170.887 273.298 167.145 275.75C165.306 276.954 163.409 278.183 161.255 278.624C159.296 279.025 157.334 278.74 155.418 278.137" stroke="#005F25" stroke-width="0.938667" stroke-miterlimit="10"/>
<path d="M389.883 140.939C385.923 145.027 381.763 148.863 376.457 150.692C372.627 152.012 368.507 152.156 364.458 152.287C354.727 152.603 344.995 152.918 335.264 153.233C332.823 153.312 330.371 153.391 327.942 153.168C324.443 153.218 321.24 155.411 319.126 158.207C316.987 161.036 315.774 164.44 314.593 167.784C313.679 170.37 312.766 172.956 311.852 175.542C311.362 176.929 310.834 178.376 309.745 179.364C307.061 181.799 302.805 180.22 299.646 178.443C296.488 176.666 292.466 174.799 289.496 176.876C288.446 177.611 287.747 178.732 286.931 179.719C285.569 181.367 283.85 182.673 282.169 183.992C272.644 191.459 263.8 199.793 255.782 208.858C262.188 209.607 266.945 216.907 265.042 223.07C264.196 225.808 262.263 228.473 262.94 231.258C263.321 232.822 264.503 234.156 264.609 235.762C264.689 236.978 264.153 238.306 264.768 239.357C265.194 240.086 266.043 240.43 266.826 240.746C271.819 242.768 276.916 246.345 277.719 251.672C278.477 256.697 275.175 261.34 272.051 265.35C269.364 268.8 266.676 272.25 263.988 275.701C263.608 276.189 263.181 276.709 262.579 276.854C262.413 276.894 262.245 276.901 262.076 276.889C263.081 279.955 264.002 282.539 262.646 285.931C261.588 288.577 261.135 290.792 260.967 292.509C268.044 292.182 274.934 294.738 281.571 297.263C283.657 298.056 285.825 298.904 287.319 300.562C291.591 305.3 287.959 312.938 289.512 319.125C293.914 319.36 298.315 319.595 302.717 319.829M302.717 319.829C302.094 319.619 301.73 319.419 301.73 319.419M302.717 319.829C302.817 319.834 302.918 319.84 303.019 319.845C300.804 316.086 303.863 311.59 305.552 307.567C307.561 302.785 307.555 297.194 305.538 292.416C304.622 290.248 303.291 287.866 304.205 285.698C305.612 282.361 310.459 282.964 313.807 281.585C317.431 280.092 319.356 276.053 322.706 274.017C329.309 270.004 338.419 276.199 339.834 283.795C341.249 291.391 337.334 298.956 332.706 305.144C330.558 308.015 327.966 310.915 324.464 311.681C321.882 312.246 318.15 312.372 317.975 315.009C318.279 316.258 318.802 317.419 319.481 318.489" stroke="#005F25" stroke-width="0.938667" stroke-miterlimit="10"/>
<path d="M359.892 318.393C363.479 317.884 363.787 312.673 366.279 310.005C368.384 307.751 372.045 307.599 374.88 308.815C377.716 310.03 379.92 312.33 382.04 314.571C384.426 311.621 389.157 312.144 392.498 313.943C395.839 315.741 398.702 318.526 402.358 319.543C402.407 319.556 402.458 319.567 402.508 319.58" stroke="#005F25" stroke-width="0.938667" stroke-miterlimit="10"/>
<path d="M319.481 318.489C321.245 321.271 324.101 323.413 327.181 324.701C331.448 326.485 336.143 326.894 340.75 327.282C344.659 327.612 349.309 327.624 351.61 324.448C353.154 322.319 353.561 318.889 356.123 318.297C357.335 318.017 358.603 318.559 359.838 318.402C359.857 318.4 359.874 318.395 359.892 318.393" stroke="#005F25" stroke-width="0.938667" stroke-miterlimit="10"/>
</g>
</svg>
