<svg width="67" height="38" viewBox="0 0 67 38" fill="none" xmlns="http://www.w3.org/2000/svg">
<path d="M33.4762 4.34702C33.4762 4.34702 24.3045 4.04632 22.1996 4.34702C20.0946 4.64772 18.14 7.50445 17.2379 9.30871C16.3357 11.113 14.5315 14.1201 11.5244 15.0222C8.51724 15.9243 3.25484 15.4733 2.05199 16.6761C0.849129 17.879 0.6988 25.2464 0.548425 25.9982C0.398098 26.75 11.2237 39.3797 14.2308 37.8762C17.2379 36.3726 27.7627 33.3655 32.7244 35.0194C37.6861 36.6733 51.5188 32.0123 55.5784 29.757C59.638 27.5016 67.6068 16.4568 66.855 13.1835C66.1033 9.91014 60.5401 0.588129 55.5784 0.137053C50.6167 -0.313977 34.2144 4.36926 33.4762 4.34702Z" fill="#80CC9E"/>
</svg>
