<svg width="136" height="136" viewBox="0 0 136 136" fill="none" xmlns="http://www.w3.org/2000/svg">
<path d="M136 68C136 105.555 105.555 136 68 136C30.4446 136 0 105.555 0 68C0 30.4446 30.4446 0 68 0C105.555 0 136 30.4446 136 68ZM34 68C34 86.7777 49.2223 102 68 102C86.7777 102 102 86.7777 102 68C102 49.2223 86.7777 34 68 34C49.2223 34 34 49.2223 34 68Z" fill="#FFA84A"/>
<path d="M68 -2.97237e-06C53.1603 -2.32371e-06 38.7281 4.85438 26.9049 13.8226C15.0818 22.7908 6.51687 35.3804 2.51688 49.6708C-1.48311 63.9612 -0.698585 79.1678 4.75077 92.9707C10.2001 106.774 20.0151 118.415 32.6984 126.119C45.3817 133.823 60.2369 137.166 74.9978 135.639C89.7586 134.112 103.615 127.798 114.452 117.661C125.29 107.523 132.514 94.1193 135.022 79.4931C137.53 64.867 135.185 49.8219 128.344 36.653L98.1719 52.3265C101.592 58.9109 102.765 66.4335 101.511 73.7466C100.257 81.0596 96.6448 87.7617 91.2261 92.8304C85.8074 97.899 78.8793 101.056 71.4989 101.819C64.1185 102.583 56.6908 100.911 50.3492 97.0594C44.0076 93.2075 39.1001 87.3868 36.3754 80.4853C33.6507 73.5839 33.2584 65.9806 35.2584 58.8354C37.2584 51.6902 41.5409 45.3954 47.4525 40.9113C53.364 36.4272 60.5802 34 68 34L68 -2.97237e-06Z" fill="#247F78"/>
<path d="M68 -2.97237e-06C56.0195 -2.44869e-06 44.2517 3.1652 33.8877 9.17523C23.5238 15.1852 14.9316 23.8267 8.981 34.2249C3.03038 44.6231 -0.0674377 56.4088 0.00111798 68.3891C0.0696737 80.3694 3.30217 92.1189 9.3714 102.448C15.4406 112.778 24.1311 121.32 34.5632 127.211C44.9952 133.102 56.7985 136.133 68.7782 135.996C80.7579 135.858 92.4888 132.559 102.783 126.431C113.078 120.302 121.57 111.563 127.402 101.097L97.7008 84.5487C94.7852 89.7815 90.5389 94.1511 85.3916 97.2153C80.2444 100.279 74.379 101.929 68.3891 101.998C62.3993 102.066 56.4976 100.551 51.2816 97.6056C46.0656 94.6601 41.7203 90.3889 38.6857 85.2242C35.6511 80.0595 34.0348 74.1847 34.0006 68.1946C33.9663 62.2044 35.5152 56.3115 38.4905 51.1124C41.4658 45.9134 45.7619 41.5926 50.9439 38.5876C56.1258 35.5826 62.0098 34 68 34L68 -2.97237e-06Z" fill="#00C6AC"/>
<path d="M68 -2.97237e-06C57.8806 -2.53004e-06 47.8887 2.25854 38.7531 6.61093C29.6174 10.9633 21.5684 17.2998 15.1929 25.1583C8.8174 33.0168 4.27621 42.1992 1.9005 52.0358C-0.475217 61.8724 -0.625555 72.1153 1.46045 82.0174C3.54645 91.9195 7.81619 101.231 13.9583 109.273C20.1004 117.316 27.96 123.886 36.964 128.504C45.968 133.123 55.8892 135.674 66.0043 135.971C76.1194 136.268 86.1732 134.303 95.4327 130.221L81.7163 99.1105C77.0866 101.152 72.0597 102.134 67.0022 101.985C61.9446 101.837 56.984 100.561 52.482 98.2521C47.98 95.9428 44.0502 92.6578 40.9792 88.6367C37.9081 84.6156 35.7732 79.9597 34.7302 75.0087C33.6872 70.0576 33.7624 64.9362 34.9502 60.0179C36.1381 55.0996 38.4087 50.5084 41.5964 46.5792C44.7842 42.6499 48.8087 39.4817 53.3765 37.3055C57.9444 35.1293 62.9403 34 68 34L68 -2.97237e-06Z" fill="#FB67CA"/>
<path d="M68 -2.97237e-06C51.4532 -2.24909e-06 35.4741 6.03338 23.0566 16.9697C10.6391 27.9061 2.63531 42.9949 0.544853 59.4092C-1.54561 75.8234 2.4207 92.4367 11.7006 106.136C20.9806 119.836 34.9374 129.682 50.956 133.829L59.478 100.915C51.4687 98.841 44.4903 93.918 39.8503 87.0682C35.2104 80.2184 33.2272 71.9117 34.2724 63.7046C35.3177 55.4975 39.3195 47.953 45.5283 42.4849C51.737 37.0167 59.7266 34 68 34L68 -2.97237e-06Z" fill="#9B88ED"/>
<path d="M68 -2.97237e-06C55.9143 -2.44409e-06 44.0469 3.22104 33.6196 9.33152C23.1924 15.442 14.5821 24.2211 8.67519 34.765C2.76828 45.3089 -0.221788 57.2365 0.0128177 69.32C0.247424 81.4035 3.69823 93.2061 10.01 103.513L39.005 85.7564C35.8491 80.603 34.1237 74.7017 34.0064 68.66C33.8891 62.6183 35.3841 56.6544 38.3376 51.3825C41.2911 46.1105 45.5962 41.721 50.8098 38.6658C56.0234 35.6105 61.9571 34 68 34L68 -2.97237e-06Z" fill="#04BFDA"/>
<path d="M9.486 53.126C8.97267 53.126 8.45933 53.0233 7.946 52.818C7.442 52.6127 7.01267 52.3327 6.658 51.978L7.162 50.872C7.50733 51.208 7.88067 51.4647 8.282 51.642C8.68333 51.81 9.08933 51.894 9.5 51.894C10.3773 51.894 11.0447 51.5813 11.502 50.956C11.9687 50.3213 12.202 49.3787 12.202 48.128V47.554C12.0153 48.1233 11.6887 48.5713 11.222 48.898C10.7647 49.2247 10.228 49.388 9.612 49.388C9.04267 49.388 8.534 49.2527 8.086 48.982C7.638 48.7113 7.288 48.3427 7.036 47.876C6.784 47.4 6.658 46.8587 6.658 46.252C6.658 45.6173 6.79333 45.0573 7.064 44.572C7.33467 44.0773 7.708 43.6947 8.184 43.424C8.66933 43.144 9.22467 43.004 9.85 43.004C11.0447 43.004 11.964 43.4287 12.608 44.278C13.2613 45.1273 13.588 46.3173 13.588 47.848C13.588 49.5373 13.224 50.8393 12.496 51.754C11.7773 52.6687 10.774 53.126 9.486 53.126ZM9.948 48.198C10.5173 48.198 10.9793 48.016 11.334 47.652C11.6887 47.2787 11.866 46.7933 11.866 46.196C11.866 45.5987 11.6887 45.1133 11.334 44.74C10.9793 44.3573 10.5173 44.166 9.948 44.166C9.37867 44.166 8.91667 44.3573 8.562 44.74C8.20733 45.1133 8.03 45.5987 8.03 46.196C8.03 46.7933 8.20733 47.2787 8.562 47.652C8.91667 48.016 9.37867 48.198 9.948 48.198ZM17.8805 53.126C17.3672 53.126 16.8539 53.0233 16.3405 52.818C15.8365 52.6127 15.4072 52.3327 15.0525 51.978L15.5565 50.872C15.9019 51.208 16.2752 51.4647 16.6765 51.642C17.0779 51.81 17.4839 51.894 17.8945 51.894C18.7719 51.894 19.4392 51.5813 19.8965 50.956C20.3632 50.3213 20.5965 49.3787 20.5965 48.128V47.554C20.4099 48.1233 20.0832 48.5713 19.6165 48.898C19.1592 49.2247 18.6225 49.388 18.0065 49.388C17.4372 49.388 16.9285 49.2527 16.4805 48.982C16.0325 48.7113 15.6825 48.3427 15.4305 47.876C15.1785 47.4 15.0525 46.8587 15.0525 46.252C15.0525 45.6173 15.1879 45.0573 15.4585 44.572C15.7292 44.0773 16.1025 43.6947 16.5785 43.424C17.0639 43.144 17.6192 43.004 18.2445 43.004C19.4392 43.004 20.3585 43.4287 21.0025 44.278C21.6559 45.1273 21.9825 46.3173 21.9825 47.848C21.9825 49.5373 21.6185 50.8393 20.8905 51.754C20.1719 52.6687 19.1685 53.126 17.8805 53.126ZM18.3425 48.198C18.9119 48.198 19.3739 48.016 19.7285 47.652C20.0832 47.2787 20.2605 46.7933 20.2605 46.196C20.2605 45.5987 20.0832 45.1133 19.7285 44.74C19.3739 44.3573 18.9119 44.166 18.3425 44.166C17.7732 44.166 17.3112 44.3573 16.9565 44.74C16.6019 45.1133 16.4245 45.5987 16.4245 46.196C16.4245 46.7933 16.6019 47.2787 16.9565 47.652C17.3112 48.016 17.7732 48.198 18.3425 48.198ZM26.9331 53.364L25.9811 52.804L31.7631 42.766L32.7151 43.326L26.9331 53.364ZM25.9251 49.038C25.1597 49.038 24.5624 48.772 24.1331 48.24C23.7037 47.6987 23.4891 46.9567 23.4891 46.014C23.4891 45.0713 23.7037 44.334 24.1331 43.802C24.5717 43.27 25.1691 43.004 25.9251 43.004C26.6811 43.004 27.2737 43.27 27.7031 43.802C28.1417 44.334 28.3611 45.0713 28.3611 46.014C28.3611 46.9567 28.1464 47.6987 27.7171 48.24C27.2877 48.772 26.6904 49.038 25.9251 49.038ZM25.9251 48.044C26.3171 48.044 26.6204 47.876 26.8351 47.54C27.0591 47.204 27.1711 46.6953 27.1711 46.014C27.1711 45.3327 27.0591 44.824 26.8351 44.488C26.6204 44.152 26.3171 43.984 25.9251 43.984C25.5331 43.984 25.2251 44.152 25.0011 44.488C24.7864 44.824 24.6791 45.3327 24.6791 46.014C24.6791 46.7047 24.7864 47.218 25.0011 47.554C25.2251 47.8807 25.5331 48.044 25.9251 48.044ZM32.7711 53.126C32.0151 53.126 31.4224 52.86 30.9931 52.328C30.5637 51.796 30.3491 51.054 30.3491 50.102C30.3491 49.1687 30.5637 48.436 30.9931 47.904C31.4224 47.3627 32.0151 47.092 32.7711 47.092C33.5364 47.092 34.1337 47.3627 34.5631 47.904C34.9924 48.436 35.2071 49.1687 35.2071 50.102C35.2071 51.054 34.9924 51.796 34.5631 52.328C34.1337 52.86 33.5364 53.126 32.7711 53.126ZM32.7711 52.146C33.1631 52.146 33.4664 51.978 33.6811 51.642C33.9051 51.306 34.0171 50.7927 34.0171 50.102C34.0171 49.43 33.9051 48.926 33.6811 48.59C33.4664 48.254 33.1631 48.086 32.7711 48.086C32.3791 48.086 32.0711 48.254 31.8471 48.59C31.6324 48.9167 31.5251 49.4207 31.5251 50.102C31.5251 50.7927 31.6324 51.306 31.8471 51.642C32.0711 51.978 32.3791 52.146 32.7711 52.146Z" fill="#FEFEFE"/>
<path d="M27.486 112.126C26.9727 112.126 26.4593 112.023 25.946 111.818C25.442 111.613 25.0127 111.333 24.658 110.978L25.162 109.872C25.5073 110.208 25.8807 110.465 26.282 110.642C26.6833 110.81 27.0893 110.894 27.5 110.894C28.3773 110.894 29.0447 110.581 29.502 109.956C29.9687 109.321 30.202 108.379 30.202 107.128V106.554C30.0153 107.123 29.6887 107.571 29.222 107.898C28.7647 108.225 28.228 108.388 27.612 108.388C27.0427 108.388 26.534 108.253 26.086 107.982C25.638 107.711 25.288 107.343 25.036 106.876C24.784 106.4 24.658 105.859 24.658 105.252C24.658 104.617 24.7933 104.057 25.064 103.572C25.3347 103.077 25.708 102.695 26.184 102.424C26.6693 102.144 27.2247 102.004 27.85 102.004C29.0447 102.004 29.964 102.429 30.608 103.278C31.2613 104.127 31.588 105.317 31.588 106.848C31.588 108.537 31.224 109.839 30.496 110.754C29.7773 111.669 28.774 112.126 27.486 112.126ZM27.948 107.198C28.5173 107.198 28.9793 107.016 29.334 106.652C29.6887 106.279 29.866 105.793 29.866 105.196C29.866 104.599 29.6887 104.113 29.334 103.74C28.9793 103.357 28.5173 103.166 27.948 103.166C27.3787 103.166 26.9167 103.357 26.562 103.74C26.2073 104.113 26.03 104.599 26.03 105.196C26.03 105.793 26.2073 106.279 26.562 106.652C26.9167 107.016 27.3787 107.198 27.948 107.198ZM35.8805 112.126C35.3672 112.126 34.8539 112.023 34.3405 111.818C33.8365 111.613 33.4072 111.333 33.0525 110.978L33.5565 109.872C33.9019 110.208 34.2752 110.465 34.6765 110.642C35.0779 110.81 35.4839 110.894 35.8945 110.894C36.7719 110.894 37.4392 110.581 37.8965 109.956C38.3632 109.321 38.5965 108.379 38.5965 107.128V106.554C38.4099 107.123 38.0832 107.571 37.6165 107.898C37.1592 108.225 36.6225 108.388 36.0065 108.388C35.4372 108.388 34.9285 108.253 34.4805 107.982C34.0325 107.711 33.6825 107.343 33.4305 106.876C33.1785 106.4 33.0525 105.859 33.0525 105.252C33.0525 104.617 33.1879 104.057 33.4585 103.572C33.7292 103.077 34.1025 102.695 34.5785 102.424C35.0639 102.144 35.6192 102.004 36.2445 102.004C37.4392 102.004 38.3585 102.429 39.0025 103.278C39.6559 104.127 39.9825 105.317 39.9825 106.848C39.9825 108.537 39.6185 109.839 38.8905 110.754C38.1719 111.669 37.1685 112.126 35.8805 112.126ZM36.3425 107.198C36.9119 107.198 37.3739 107.016 37.7285 106.652C38.0832 106.279 38.2605 105.793 38.2605 105.196C38.2605 104.599 38.0832 104.113 37.7285 103.74C37.3739 103.357 36.9119 103.166 36.3425 103.166C35.7732 103.166 35.3112 103.357 34.9565 103.74C34.6019 104.113 34.4245 104.599 34.4245 105.196C34.4245 105.793 34.6019 106.279 34.9565 106.652C35.3112 107.016 35.7732 107.198 36.3425 107.198ZM44.9331 112.364L43.9811 111.804L49.7631 101.766L50.7151 102.326L44.9331 112.364ZM43.9251 108.038C43.1597 108.038 42.5624 107.772 42.1331 107.24C41.7037 106.699 41.4891 105.957 41.4891 105.014C41.4891 104.071 41.7037 103.334 42.1331 102.802C42.5717 102.27 43.1691 102.004 43.9251 102.004C44.6811 102.004 45.2737 102.27 45.7031 102.802C46.1417 103.334 46.3611 104.071 46.3611 105.014C46.3611 105.957 46.1464 106.699 45.7171 107.24C45.2877 107.772 44.6904 108.038 43.9251 108.038ZM43.9251 107.044C44.3171 107.044 44.6204 106.876 44.8351 106.54C45.0591 106.204 45.1711 105.695 45.1711 105.014C45.1711 104.333 45.0591 103.824 44.8351 103.488C44.6204 103.152 44.3171 102.984 43.9251 102.984C43.5331 102.984 43.2251 103.152 43.0011 103.488C42.7864 103.824 42.6791 104.333 42.6791 105.014C42.6791 105.705 42.7864 106.218 43.0011 106.554C43.2251 106.881 43.5331 107.044 43.9251 107.044ZM50.7711 112.126C50.0151 112.126 49.4224 111.86 48.9931 111.328C48.5637 110.796 48.3491 110.054 48.3491 109.102C48.3491 108.169 48.5637 107.436 48.9931 106.904C49.4224 106.363 50.0151 106.092 50.7711 106.092C51.5364 106.092 52.1337 106.363 52.5631 106.904C52.9924 107.436 53.2071 108.169 53.2071 109.102C53.2071 110.054 52.9924 110.796 52.5631 111.328C52.1337 111.86 51.5364 112.126 50.7711 112.126ZM50.7711 111.146C51.1631 111.146 51.4664 110.978 51.6811 110.642C51.9051 110.306 52.0171 109.793 52.0171 109.102C52.0171 108.43 51.9051 107.926 51.6811 107.59C51.4664 107.254 51.1631 107.086 50.7711 107.086C50.3791 107.086 50.0711 107.254 49.8471 107.59C49.6324 107.917 49.5251 108.421 49.5251 109.102C49.5251 109.793 49.6324 110.306 49.8471 110.642C50.0711 110.978 50.3791 111.146 50.7711 111.146Z" fill="#FEFEFE"/>
<path d="M62.486 126.126C61.9727 126.126 61.4593 126.023 60.946 125.818C60.442 125.613 60.0127 125.333 59.658 124.978L60.162 123.872C60.5073 124.208 60.8807 124.465 61.282 124.642C61.6833 124.81 62.0893 124.894 62.5 124.894C63.3773 124.894 64.0447 124.581 64.502 123.956C64.9687 123.321 65.202 122.379 65.202 121.128V120.554C65.0153 121.123 64.6887 121.571 64.222 121.898C63.7647 122.225 63.228 122.388 62.612 122.388C62.0427 122.388 61.534 122.253 61.086 121.982C60.638 121.711 60.288 121.343 60.036 120.876C59.784 120.4 59.658 119.859 59.658 119.252C59.658 118.617 59.7933 118.057 60.064 117.572C60.3347 117.077 60.708 116.695 61.184 116.424C61.6693 116.144 62.2247 116.004 62.85 116.004C64.0447 116.004 64.964 116.429 65.608 117.278C66.2613 118.127 66.588 119.317 66.588 120.848C66.588 122.537 66.224 123.839 65.496 124.754C64.7773 125.669 63.774 126.126 62.486 126.126ZM62.948 121.198C63.5173 121.198 63.9793 121.016 64.334 120.652C64.6887 120.279 64.866 119.793 64.866 119.196C64.866 118.599 64.6887 118.113 64.334 117.74C63.9793 117.357 63.5173 117.166 62.948 117.166C62.3787 117.166 61.9167 117.357 61.562 117.74C61.2073 118.113 61.03 118.599 61.03 119.196C61.03 119.793 61.2073 120.279 61.562 120.652C61.9167 121.016 62.3787 121.198 62.948 121.198ZM70.8805 126.126C70.3672 126.126 69.8539 126.023 69.3405 125.818C68.8365 125.613 68.4072 125.333 68.0525 124.978L68.5565 123.872C68.9019 124.208 69.2752 124.465 69.6765 124.642C70.0779 124.81 70.4839 124.894 70.8945 124.894C71.7719 124.894 72.4392 124.581 72.8965 123.956C73.3632 123.321 73.5965 122.379 73.5965 121.128V120.554C73.4099 121.123 73.0832 121.571 72.6165 121.898C72.1592 122.225 71.6225 122.388 71.0065 122.388C70.4372 122.388 69.9285 122.253 69.4805 121.982C69.0325 121.711 68.6825 121.343 68.4305 120.876C68.1785 120.4 68.0525 119.859 68.0525 119.252C68.0525 118.617 68.1879 118.057 68.4585 117.572C68.7292 117.077 69.1025 116.695 69.5785 116.424C70.0639 116.144 70.6192 116.004 71.2445 116.004C72.4392 116.004 73.3585 116.429 74.0025 117.278C74.6559 118.127 74.9825 119.317 74.9825 120.848C74.9825 122.537 74.6185 123.839 73.8905 124.754C73.1719 125.669 72.1685 126.126 70.8805 126.126ZM71.3425 121.198C71.9119 121.198 72.3739 121.016 72.7285 120.652C73.0832 120.279 73.2605 119.793 73.2605 119.196C73.2605 118.599 73.0832 118.113 72.7285 117.74C72.3739 117.357 71.9119 117.166 71.3425 117.166C70.7732 117.166 70.3112 117.357 69.9565 117.74C69.6019 118.113 69.4245 118.599 69.4245 119.196C69.4245 119.793 69.6019 120.279 69.9565 120.652C70.3112 121.016 70.7732 121.198 71.3425 121.198ZM79.9331 126.364L78.9811 125.804L84.7631 115.766L85.7151 116.326L79.9331 126.364ZM78.9251 122.038C78.1597 122.038 77.5624 121.772 77.1331 121.24C76.7037 120.699 76.4891 119.957 76.4891 119.014C76.4891 118.071 76.7037 117.334 77.1331 116.802C77.5717 116.27 78.1691 116.004 78.9251 116.004C79.6811 116.004 80.2737 116.27 80.7031 116.802C81.1417 117.334 81.3611 118.071 81.3611 119.014C81.3611 119.957 81.1464 120.699 80.7171 121.24C80.2877 121.772 79.6904 122.038 78.9251 122.038ZM78.9251 121.044C79.3171 121.044 79.6204 120.876 79.8351 120.54C80.0591 120.204 80.1711 119.695 80.1711 119.014C80.1711 118.333 80.0591 117.824 79.8351 117.488C79.6204 117.152 79.3171 116.984 78.9251 116.984C78.5331 116.984 78.2251 117.152 78.0011 117.488C77.7864 117.824 77.6791 118.333 77.6791 119.014C77.6791 119.705 77.7864 120.218 78.0011 120.554C78.2251 120.881 78.5331 121.044 78.9251 121.044ZM85.7711 126.126C85.0151 126.126 84.4224 125.86 83.9931 125.328C83.5637 124.796 83.3491 124.054 83.3491 123.102C83.3491 122.169 83.5637 121.436 83.9931 120.904C84.4224 120.363 85.0151 120.092 85.7711 120.092C86.5364 120.092 87.1337 120.363 87.5631 120.904C87.9924 121.436 88.2071 122.169 88.2071 123.102C88.2071 124.054 87.9924 124.796 87.5631 125.328C87.1337 125.86 86.5364 126.126 85.7711 126.126ZM85.7711 125.146C86.1631 125.146 86.4664 124.978 86.6811 124.642C86.9051 124.306 87.0171 123.793 87.0171 123.102C87.0171 122.43 86.9051 121.926 86.6811 121.59C86.4664 121.254 86.1631 121.086 85.7711 121.086C85.3791 121.086 85.0711 121.254 84.8471 121.59C84.6324 121.917 84.5251 122.421 84.5251 123.102C84.5251 123.793 84.6324 124.306 84.8471 124.642C85.0711 124.978 85.3791 125.146 85.7711 125.146Z" fill="#FEFEFE"/>
<path d="M92.486 109.126C91.9727 109.126 91.4593 109.023 90.946 108.818C90.442 108.613 90.0127 108.333 89.658 107.978L90.162 106.872C90.5073 107.208 90.8807 107.465 91.282 107.642C91.6833 107.81 92.0893 107.894 92.5 107.894C93.3773 107.894 94.0447 107.581 94.502 106.956C94.9687 106.321 95.202 105.379 95.202 104.128V103.554C95.0153 104.123 94.6887 104.571 94.222 104.898C93.7647 105.225 93.228 105.388 92.612 105.388C92.0427 105.388 91.534 105.253 91.086 104.982C90.638 104.711 90.288 104.343 90.036 103.876C89.784 103.4 89.658 102.859 89.658 102.252C89.658 101.617 89.7933 101.057 90.064 100.572C90.3347 100.077 90.708 99.6947 91.184 99.424C91.6693 99.144 92.2247 99.004 92.85 99.004C94.0447 99.004 94.964 99.4287 95.608 100.278C96.2613 101.127 96.588 102.317 96.588 103.848C96.588 105.537 96.224 106.839 95.496 107.754C94.7773 108.669 93.774 109.126 92.486 109.126ZM92.948 104.198C93.5173 104.198 93.9793 104.016 94.334 103.652C94.6887 103.279 94.866 102.793 94.866 102.196C94.866 101.599 94.6887 101.113 94.334 100.74C93.9793 100.357 93.5173 100.166 92.948 100.166C92.3787 100.166 91.9167 100.357 91.562 100.74C91.2073 101.113 91.03 101.599 91.03 102.196C91.03 102.793 91.2073 103.279 91.562 103.652C91.9167 104.016 92.3787 104.198 92.948 104.198ZM100.881 109.126C100.367 109.126 99.8539 109.023 99.3405 108.818C98.8365 108.613 98.4072 108.333 98.0525 107.978L98.5565 106.872C98.9019 107.208 99.2752 107.465 99.6765 107.642C100.078 107.81 100.484 107.894 100.895 107.894C101.772 107.894 102.439 107.581 102.897 106.956C103.363 106.321 103.597 105.379 103.597 104.128V103.554C103.41 104.123 103.083 104.571 102.617 104.898C102.159 105.225 101.623 105.388 101.007 105.388C100.437 105.388 99.9285 105.253 99.4805 104.982C99.0325 104.711 98.6825 104.343 98.4305 103.876C98.1785 103.4 98.0525 102.859 98.0525 102.252C98.0525 101.617 98.1879 101.057 98.4585 100.572C98.7292 100.077 99.1025 99.6947 99.5785 99.424C100.064 99.144 100.619 99.004 101.245 99.004C102.439 99.004 103.359 99.4287 104.003 100.278C104.656 101.127 104.983 102.317 104.983 103.848C104.983 105.537 104.619 106.839 103.891 107.754C103.172 108.669 102.169 109.126 100.881 109.126ZM101.343 104.198C101.912 104.198 102.374 104.016 102.729 103.652C103.083 103.279 103.261 102.793 103.261 102.196C103.261 101.599 103.083 101.113 102.729 100.74C102.374 100.357 101.912 100.166 101.343 100.166C100.773 100.166 100.311 100.357 99.9565 100.74C99.6019 101.113 99.4245 101.599 99.4245 102.196C99.4245 102.793 99.6019 103.279 99.9565 103.652C100.311 104.016 100.773 104.198 101.343 104.198ZM109.933 109.364L108.981 108.804L114.763 98.766L115.715 99.326L109.933 109.364ZM108.925 105.038C108.16 105.038 107.562 104.772 107.133 104.24C106.704 103.699 106.489 102.957 106.489 102.014C106.489 101.071 106.704 100.334 107.133 99.802C107.572 99.27 108.169 99.004 108.925 99.004C109.681 99.004 110.274 99.27 110.703 99.802C111.142 100.334 111.361 101.071 111.361 102.014C111.361 102.957 111.146 103.699 110.717 104.24C110.288 104.772 109.69 105.038 108.925 105.038ZM108.925 104.044C109.317 104.044 109.62 103.876 109.835 103.54C110.059 103.204 110.171 102.695 110.171 102.014C110.171 101.333 110.059 100.824 109.835 100.488C109.62 100.152 109.317 99.984 108.925 99.984C108.533 99.984 108.225 100.152 108.001 100.488C107.786 100.824 107.679 101.333 107.679 102.014C107.679 102.705 107.786 103.218 108.001 103.554C108.225 103.881 108.533 104.044 108.925 104.044ZM115.771 109.126C115.015 109.126 114.422 108.86 113.993 108.328C113.564 107.796 113.349 107.054 113.349 106.102C113.349 105.169 113.564 104.436 113.993 103.904C114.422 103.363 115.015 103.092 115.771 103.092C116.536 103.092 117.134 103.363 117.563 103.904C117.992 104.436 118.207 105.169 118.207 106.102C118.207 107.054 117.992 107.796 117.563 108.328C117.134 108.86 116.536 109.126 115.771 109.126ZM115.771 108.146C116.163 108.146 116.466 107.978 116.681 107.642C116.905 107.306 117.017 106.793 117.017 106.102C117.017 105.43 116.905 104.926 116.681 104.59C116.466 104.254 116.163 104.086 115.771 104.086C115.379 104.086 115.071 104.254 114.847 104.59C114.632 104.917 114.525 105.421 114.525 106.102C114.525 106.793 114.632 107.306 114.847 107.642C115.071 107.978 115.379 108.146 115.771 108.146Z" fill="#FEFEFE"/>
<path d="M107.486 73.126C106.973 73.126 106.459 73.0233 105.946 72.818C105.442 72.6127 105.013 72.3327 104.658 71.978L105.162 70.872C105.507 71.208 105.881 71.4647 106.282 71.642C106.683 71.81 107.089 71.894 107.5 71.894C108.377 71.894 109.045 71.5813 109.502 70.956C109.969 70.3213 110.202 69.3787 110.202 68.128V67.554C110.015 68.1233 109.689 68.5713 109.222 68.898C108.765 69.2247 108.228 69.388 107.612 69.388C107.043 69.388 106.534 69.2527 106.086 68.982C105.638 68.7113 105.288 68.3427 105.036 67.876C104.784 67.4 104.658 66.8587 104.658 66.252C104.658 65.6173 104.793 65.0573 105.064 64.572C105.335 64.0773 105.708 63.6947 106.184 63.424C106.669 63.144 107.225 63.004 107.85 63.004C109.045 63.004 109.964 63.4287 110.608 64.278C111.261 65.1273 111.588 66.3173 111.588 67.848C111.588 69.5373 111.224 70.8393 110.496 71.754C109.777 72.6687 108.774 73.126 107.486 73.126ZM107.948 68.198C108.517 68.198 108.979 68.016 109.334 67.652C109.689 67.2787 109.866 66.7933 109.866 66.196C109.866 65.5987 109.689 65.1133 109.334 64.74C108.979 64.3573 108.517 64.166 107.948 64.166C107.379 64.166 106.917 64.3573 106.562 64.74C106.207 65.1133 106.03 65.5987 106.03 66.196C106.03 66.7933 106.207 67.2787 106.562 67.652C106.917 68.016 107.379 68.198 107.948 68.198ZM115.881 73.126C115.367 73.126 114.854 73.0233 114.341 72.818C113.837 72.6127 113.407 72.3327 113.053 71.978L113.557 70.872C113.902 71.208 114.275 71.4647 114.677 71.642C115.078 71.81 115.484 71.894 115.895 71.894C116.772 71.894 117.439 71.5813 117.897 70.956C118.363 70.3213 118.597 69.3787 118.597 68.128V67.554C118.41 68.1233 118.083 68.5713 117.617 68.898C117.159 69.2247 116.623 69.388 116.007 69.388C115.437 69.388 114.929 69.2527 114.481 68.982C114.033 68.7113 113.683 68.3427 113.431 67.876C113.179 67.4 113.053 66.8587 113.053 66.252C113.053 65.6173 113.188 65.0573 113.459 64.572C113.729 64.0773 114.103 63.6947 114.579 63.424C115.064 63.144 115.619 63.004 116.245 63.004C117.439 63.004 118.359 63.4287 119.003 64.278C119.656 65.1273 119.983 66.3173 119.983 67.848C119.983 69.5373 119.619 70.8393 118.891 71.754C118.172 72.6687 117.169 73.126 115.881 73.126ZM116.343 68.198C116.912 68.198 117.374 68.016 117.729 67.652C118.083 67.2787 118.261 66.7933 118.261 66.196C118.261 65.5987 118.083 65.1133 117.729 64.74C117.374 64.3573 116.912 64.166 116.343 64.166C115.773 64.166 115.311 64.3573 114.957 64.74C114.602 65.1133 114.425 65.5987 114.425 66.196C114.425 66.7933 114.602 67.2787 114.957 67.652C115.311 68.016 115.773 68.198 116.343 68.198ZM124.933 73.364L123.981 72.804L129.763 62.766L130.715 63.326L124.933 73.364ZM123.925 69.038C123.16 69.038 122.562 68.772 122.133 68.24C121.704 67.6987 121.489 66.9567 121.489 66.014C121.489 65.0713 121.704 64.334 122.133 63.802C122.572 63.27 123.169 63.004 123.925 63.004C124.681 63.004 125.274 63.27 125.703 63.802C126.142 64.334 126.361 65.0713 126.361 66.014C126.361 66.9567 126.146 67.6987 125.717 68.24C125.288 68.772 124.69 69.038 123.925 69.038ZM123.925 68.044C124.317 68.044 124.62 67.876 124.835 67.54C125.059 67.204 125.171 66.6953 125.171 66.014C125.171 65.3327 125.059 64.824 124.835 64.488C124.62 64.152 124.317 63.984 123.925 63.984C123.533 63.984 123.225 64.152 123.001 64.488C122.786 64.824 122.679 65.3327 122.679 66.014C122.679 66.7047 122.786 67.218 123.001 67.554C123.225 67.8807 123.533 68.044 123.925 68.044ZM130.771 73.126C130.015 73.126 129.422 72.86 128.993 72.328C128.564 71.796 128.349 71.054 128.349 70.102C128.349 69.1687 128.564 68.436 128.993 67.904C129.422 67.3627 130.015 67.092 130.771 67.092C131.536 67.092 132.134 67.3627 132.563 67.904C132.992 68.436 133.207 69.1687 133.207 70.102C133.207 71.054 132.992 71.796 132.563 72.328C132.134 72.86 131.536 73.126 130.771 73.126ZM130.771 72.146C131.163 72.146 131.466 71.978 131.681 71.642C131.905 71.306 132.017 70.7927 132.017 70.102C132.017 69.43 131.905 68.926 131.681 68.59C131.466 68.254 131.163 68.086 130.771 68.086C130.379 68.086 130.071 68.254 129.847 68.59C129.632 68.9167 129.525 69.4207 129.525 70.102C129.525 70.7927 129.632 71.306 129.847 71.642C130.071 71.978 130.379 72.146 130.771 72.146Z" fill="#FEFEFE"/>
<path d="M83.486 32.126C82.9727 32.126 82.4593 32.0233 81.946 31.818C81.442 31.6127 81.0127 31.3327 80.658 30.978L81.162 29.872C81.5073 30.208 81.8807 30.4647 82.282 30.642C82.6833 30.81 83.0893 30.894 83.5 30.894C84.3773 30.894 85.0447 30.5813 85.502 29.956C85.9687 29.3213 86.202 28.3787 86.202 27.128V26.554C86.0153 27.1233 85.6887 27.5713 85.222 27.898C84.7647 28.2247 84.228 28.388 83.612 28.388C83.0427 28.388 82.534 28.2527 82.086 27.982C81.638 27.7113 81.288 27.3427 81.036 26.876C80.784 26.4 80.658 25.8587 80.658 25.252C80.658 24.6173 80.7933 24.0573 81.064 23.572C81.3347 23.0773 81.708 22.6947 82.184 22.424C82.6693 22.144 83.2247 22.004 83.85 22.004C85.0447 22.004 85.964 22.4287 86.608 23.278C87.2613 24.1273 87.588 25.3173 87.588 26.848C87.588 28.5373 87.224 29.8393 86.496 30.754C85.7773 31.6687 84.774 32.126 83.486 32.126ZM83.948 27.198C84.5173 27.198 84.9793 27.016 85.334 26.652C85.6887 26.2787 85.866 25.7933 85.866 25.196C85.866 24.5987 85.6887 24.1133 85.334 23.74C84.9793 23.3573 84.5173 23.166 83.948 23.166C83.3787 23.166 82.9167 23.3573 82.562 23.74C82.2073 24.1133 82.03 24.5987 82.03 25.196C82.03 25.7933 82.2073 26.2787 82.562 26.652C82.9167 27.016 83.3787 27.198 83.948 27.198ZM91.8805 32.126C91.3672 32.126 90.8539 32.0233 90.3405 31.818C89.8365 31.6127 89.4072 31.3327 89.0525 30.978L89.5565 29.872C89.9019 30.208 90.2752 30.4647 90.6765 30.642C91.0779 30.81 91.4839 30.894 91.8945 30.894C92.7719 30.894 93.4392 30.5813 93.8965 29.956C94.3632 29.3213 94.5965 28.3787 94.5965 27.128V26.554C94.4099 27.1233 94.0832 27.5713 93.6165 27.898C93.1592 28.2247 92.6225 28.388 92.0065 28.388C91.4372 28.388 90.9285 28.2527 90.4805 27.982C90.0325 27.7113 89.6825 27.3427 89.4305 26.876C89.1785 26.4 89.0525 25.8587 89.0525 25.252C89.0525 24.6173 89.1879 24.0573 89.4585 23.572C89.7292 23.0773 90.1025 22.6947 90.5785 22.424C91.0639 22.144 91.6192 22.004 92.2445 22.004C93.4392 22.004 94.3585 22.4287 95.0025 23.278C95.6559 24.1273 95.9825 25.3173 95.9825 26.848C95.9825 28.5373 95.6185 29.8393 94.8905 30.754C94.1719 31.6687 93.1685 32.126 91.8805 32.126ZM92.3425 27.198C92.9119 27.198 93.3739 27.016 93.7285 26.652C94.0832 26.2787 94.2605 25.7933 94.2605 25.196C94.2605 24.5987 94.0832 24.1133 93.7285 23.74C93.3739 23.3573 92.9119 23.166 92.3425 23.166C91.7732 23.166 91.3112 23.3573 90.9565 23.74C90.6019 24.1133 90.4245 24.5987 90.4245 25.196C90.4245 25.7933 90.6019 26.2787 90.9565 26.652C91.3112 27.016 91.7732 27.198 92.3425 27.198ZM100.933 32.364L99.9811 31.804L105.763 21.766L106.715 22.326L100.933 32.364ZM99.9251 28.038C99.1597 28.038 98.5624 27.772 98.1331 27.24C97.7037 26.6987 97.4891 25.9567 97.4891 25.014C97.4891 24.0713 97.7037 23.334 98.1331 22.802C98.5717 22.27 99.1691 22.004 99.9251 22.004C100.681 22.004 101.274 22.27 101.703 22.802C102.142 23.334 102.361 24.0713 102.361 25.014C102.361 25.9567 102.146 26.6987 101.717 27.24C101.288 27.772 100.69 28.038 99.9251 28.038ZM99.9251 27.044C100.317 27.044 100.62 26.876 100.835 26.54C101.059 26.204 101.171 25.6953 101.171 25.014C101.171 24.3327 101.059 23.824 100.835 23.488C100.62 23.152 100.317 22.984 99.9251 22.984C99.5331 22.984 99.2251 23.152 99.0011 23.488C98.7864 23.824 98.6791 24.3327 98.6791 25.014C98.6791 25.7047 98.7864 26.218 99.0011 26.554C99.2251 26.8807 99.5331 27.044 99.9251 27.044ZM106.771 32.126C106.015 32.126 105.422 31.86 104.993 31.328C104.564 30.796 104.349 30.054 104.349 29.102C104.349 28.1687 104.564 27.436 104.993 26.904C105.422 26.3627 106.015 26.092 106.771 26.092C107.536 26.092 108.134 26.3627 108.563 26.904C108.992 27.436 109.207 28.1687 109.207 29.102C109.207 30.054 108.992 30.796 108.563 31.328C108.134 31.86 107.536 32.126 106.771 32.126ZM106.771 31.146C107.163 31.146 107.466 30.978 107.681 30.642C107.905 30.306 108.017 29.7927 108.017 29.102C108.017 28.43 107.905 27.926 107.681 27.59C107.466 27.254 107.163 27.086 106.771 27.086C106.379 27.086 106.071 27.254 105.847 27.59C105.632 27.9167 105.525 28.4207 105.525 29.102C105.525 29.7927 105.632 30.306 105.847 30.642C106.071 30.978 106.379 31.146 106.771 31.146Z" fill="#FEFEFE"/>
</svg>
