<?xml version="1.0" standalone="no"?>
<!DOCTYPE svg PUBLIC "-//W3C//DTD SVG 20010904//EN"
 "http://www.w3.org/TR/2001/REC-SVG-20010904/DTD/svg10.dtd">
<svg version="1.0" xmlns="http://www.w3.org/2000/svg"
 width="194.000000pt" height="192.000000pt" viewBox="0 0 194.000000 192.000000"
 preserveAspectRatio="xMidYMid meet">

<g transform="translate(0.000000,192.000000) scale(0.100000,-0.100000)"
fill="#FF0000" stroke-width="3" stroke="red">
<path d="M881 1779 c-215 -20 -441 -143 -577 -313 -134 -167 -194 -337 -194
-548 1 -245 92 -453 273 -624 172 -162 356 -234 594 -234 262 1 500 115 665
319 255 316 256 756 3 1079 -130 166 -362 298 -555 317 -36 3 -78 7 -95 9 -16
2 -68 0 -114 -5z m334 -92 c122 -40 227 -107 325 -206 47 -48 93 -101 103
-119 l18 -32 -685 0 c-557 0 -686 -2 -686 -13 0 -7 26 -58 58 -113 32 -54 114
-196 182 -314 68 -118 147 -255 176 -305 29 -49 99 -171 156 -269 56 -98 107
-179 113 -179 8 0 227 373 429 733 93 164 250 435 257 444 10 12 52 -73 81
-164 20 -66 23 -94 22 -235 0 -146 -2 -167 -27 -240 -41 -123 -107 -228 -206
-325 -152 -150 -306 -217 -522 -227 -192 -9 -328 28 -483 131 -227 151 -356
393 -356 666 0 169 43 312 137 450 111 165 267 276 457 326 80 21 107 24 231
20 117 -3 153 -8 220 -29z m331 -459 c-25 -44 -345 -604 -489 -855 -69 -120
-83 -139 -93 -125 -6 9 -73 125 -149 257 -76 132 -178 308 -225 390 -48 83
-115 198 -148 257 -34 58 -62 109 -62 112 0 3 268 6 595 6 l596 0 -25 -42z"/>
<path d="M912 913 l3 -268 55 0 55 0 3 268 2 267 -60 0 -60 0 2 -267z"/>
<path d="M921 554 c-12 -15 -21 -35 -21 -46 0 -24 44 -68 68 -68 33 0 72 38
72 71 0 65 -80 93 -119 43z"/>
</g>
</svg>
