<svg width="172" height="24" viewBox="0 0 172 24" fill="none" xmlns="http://www.w3.org/2000/svg">
<g clip-path="url(#clip0_1_508)">
<path d="M10.3982 12.3022C10.0553 9.18202 13.3236 6.67576 17.7011 6.71386C22.0786 6.74773 25.9057 9.3048 26.2486 12.4207C26.5915 15.5451 23.3232 18.0428 18.9457 18.009C14.5682 17.9793 10.7411 15.4223 10.3982 12.3022ZM27.0657 13.2716C26.672 9.40217 22.2648 6.23124 17.2269 6.1889C12.1848 6.14657 8.42536 9.24976 8.81908 13.1192C9.2128 16.9887 13.6199 20.1596 18.6579 20.202C23.6958 20.2401 27.4636 17.1411 27.0657 13.2716Z" fill="#FBB584"/>
<path d="M19.4592 20.2784C16.9783 22.8735 12.9945 23.0894 10.5602 20.761C8.13017 18.4325 8.16827 14.4445 10.6534 11.8536C13.1342 9.26267 17.1222 9.04676 19.5481 11.371C21.9781 13.6994 21.94 17.6874 19.4549 20.2784M10.2596 11.7689C7.3766 14.7832 7.33003 19.419 10.1538 22.1242C12.9776 24.8294 17.6091 24.5797 20.4921 21.5654C23.3794 18.5511 23.426 13.9153 20.598 11.2101C17.7742 8.50486 13.1427 8.75464 10.2554 11.7689" fill="#F89B6C"/>
<path d="M10.5301 2.06481C15.6908 0.13008 20.7965 2.08598 21.9311 6.43384C23.0657 10.7817 19.8016 15.8789 14.6409 17.8094C9.48019 19.7441 4.37453 17.7882 3.23994 13.4404C2.10111 9.09251 5.36941 3.99955 10.5301 2.06481ZM5.73773 3.7286C0.382289 7.96638 -0.980915 14.1093 2.68957 17.4453C6.3643 20.7856 13.6799 20.0532 19.0395 15.8112C24.395 11.5734 25.7582 5.43049 22.0835 2.09021C18.4087 -1.24582 11.0889 -0.51342 5.73773 3.72436" fill="#F37321"/>
<path d="M97.4057 7.18945C97.5793 7.18945 97.7444 7.23602 97.8925 7.32916C98.0407 7.4223 98.1762 7.57471 98.2905 7.79062L102.854 16.8039H101.203L99.9924 14.3907H94.8402L93.6294 16.8039H91.9783L96.542 7.79062C96.6563 7.57471 96.7918 7.41806 96.94 7.32916C97.0882 7.24026 97.2448 7.18945 97.4015 7.18945H97.4057ZM99.3446 13.1037L97.4184 9.26813L95.4921 13.1037H99.3446Z" fill="white"/>
<path d="M111.109 11.7278V12.2273C111.109 12.8454 110.898 13.3492 110.47 13.7387C110.064 14.1282 109.509 14.3272 108.806 14.3272H104.903V14.378C104.903 15.1358 105.322 15.5168 106.164 15.5168H110.766V16.8038H106.177C105.284 16.8038 104.598 16.5794 104.115 16.1307C103.641 15.6904 103.404 15.0511 103.404 14.2171V11.7278C103.404 11.1012 103.612 10.5932 104.031 10.2037C104.437 9.80575 104.996 9.60254 105.707 9.60254H108.798C109.505 9.60254 110.064 9.80152 110.474 10.2037C110.898 10.5974 111.113 11.1055 111.113 11.7278H111.109ZM106.059 13.0529H108.446C109.221 13.0529 109.611 12.7311 109.611 12.0919V11.8548C109.611 11.2028 109.221 10.8811 108.446 10.8811H106.059C105.292 10.8811 104.907 11.2071 104.907 11.8548V12.0919C104.907 12.7354 105.292 13.0529 106.059 13.0529Z" fill="white"/>
<path d="M112.383 11.8499C112.383 11.1429 112.611 10.5841 113.069 10.1734C113.483 9.78817 114.14 9.59766 115.033 9.59766H117.81V10.8974H115.134C114.309 10.8974 113.898 11.2784 113.898 12.0362V16.7989H112.387V11.8499H112.383Z" fill="white"/>
<path d="M123.877 16.7989H121.663C120.769 16.7905 120.071 16.5322 119.563 16.0242C119.055 15.5246 118.801 14.8092 118.801 13.8735V12.5357C118.801 11.5959 119.055 10.872 119.563 10.3724C120.071 9.86437 120.769 9.60612 121.663 9.59766H123.877C124.778 9.60612 125.481 9.86437 125.989 10.3724C126.497 10.872 126.751 11.5917 126.751 12.5357V13.8735C126.751 14.8049 126.497 15.5246 125.989 16.0242C125.481 16.5322 124.778 16.7905 123.877 16.7989ZM123.762 15.4992C124.296 15.4992 124.69 15.3384 124.939 15.0124C125.147 14.7372 125.253 14.335 125.253 13.8016V12.6246C125.253 12.0828 125.147 11.6763 124.939 11.4011C124.69 11.0667 124.296 10.9016 123.762 10.9016H121.764C121.239 10.9016 120.85 11.0667 120.6 11.4011C120.401 11.6763 120.299 12.0828 120.299 12.6246V13.8016C120.299 14.335 120.401 14.7372 120.6 15.0124C120.85 15.3384 121.239 15.4992 121.764 15.4992H123.762Z" fill="white"/>
<path d="M132.929 12.5618C133.738 12.5618 134.331 12.6888 134.703 12.9386C135.177 13.2561 135.414 13.7514 135.414 14.4246V14.9622C135.414 15.6311 135.177 16.1222 134.703 16.4355C134.326 16.6768 133.734 16.7996 132.917 16.7996H128.141V15.4999H132.917C133.577 15.4999 133.903 15.2755 133.903 14.8267V14.5389C133.903 14.0816 133.573 13.853 132.917 13.853H130.44C129.64 13.853 129.051 13.7303 128.679 13.4889C128.213 13.1714 127.98 12.6803 127.98 12.0157V11.4653C127.98 10.7837 128.213 10.2841 128.679 9.97932C129.056 9.72955 129.64 9.60254 130.44 9.60254H135.017V10.9022H130.465C129.813 10.9022 129.492 11.1309 129.492 11.5881V11.8887C129.492 12.3374 129.813 12.5618 130.453 12.5618H132.929Z" fill="white"/>
<path d="M136.629 12.5406C136.629 11.6008 136.883 10.8768 137.391 10.3773C137.899 9.86925 138.597 9.61101 139.491 9.60254H141.455C142.348 9.61101 143.047 9.86925 143.555 10.3773C144.071 10.8768 144.33 11.5965 144.33 12.5406V13.8784C144.33 14.8098 144.071 15.5295 143.555 16.0291C143.047 16.5371 142.348 16.7953 141.468 16.8038H138.127V19.2804H136.629V12.5406ZM138.127 12.6295V15.5041H141.353C141.878 15.5041 142.272 15.3432 142.53 15.0173C142.729 14.7421 142.831 14.3399 142.831 13.8065V12.6295C142.831 12.0876 142.729 11.6812 142.53 11.406C142.272 11.0716 141.878 10.9065 141.353 10.9065H139.592C139.067 10.9065 138.678 11.0716 138.428 11.406C138.229 11.6812 138.127 12.0876 138.127 12.6295Z" fill="white"/>
<path d="M147.847 16.7989C147.148 16.7989 146.594 16.6042 146.183 16.2105C145.768 15.821 145.556 15.313 145.556 14.6991V14.1868C145.556 13.5603 145.764 13.0522 146.183 12.6627C146.589 12.2606 147.144 12.0616 147.847 12.0616H151.759V12.0235C151.759 11.2572 151.339 10.872 150.497 10.872H146.145V9.59766H150.472C151.373 9.59766 152.059 9.82627 152.533 10.2835C153.016 10.7238 153.257 11.3673 153.257 12.2098V14.7457C153.257 15.3976 153.037 15.9099 152.593 16.2824C152.195 16.6254 151.632 16.7947 150.903 16.7947H147.838L147.847 16.7989ZM150.586 13.3359H148.211C147.445 13.3359 147.059 13.6619 147.059 14.3096V14.5467C147.059 15.1902 147.44 15.5077 148.211 15.5077H150.586C151.369 15.5077 151.763 15.1859 151.763 14.5467V14.3096C151.763 13.6576 151.369 13.3359 150.586 13.3359Z" fill="white"/>
<path d="M162.314 16.7989H157.526C156.633 16.7905 155.934 16.5322 155.426 16.0242C154.918 15.5246 154.664 14.8092 154.664 13.8735V12.5484C154.664 11.6086 154.918 10.8847 155.426 10.3851C155.934 9.87707 156.633 9.61459 157.526 9.59766H162.314V10.8974H157.649C157.115 10.8974 156.717 11.0625 156.459 11.3969C156.268 11.6721 156.171 12.0785 156.171 12.6204V13.7973C156.171 14.3308 156.268 14.733 156.459 15.0081C156.717 15.3341 157.115 15.495 157.649 15.495H162.314V16.7947V16.7989Z" fill="white"/>
<path d="M171.367 11.7278V12.2273C171.367 12.8454 171.155 13.3492 170.728 13.7387C170.321 14.1282 169.767 14.3272 169.064 14.3272H165.161V14.378C165.161 15.1358 165.58 15.5168 166.422 15.5168H171.024V16.8038H166.435C165.542 16.8038 164.856 16.5794 164.373 16.1307C163.899 15.6904 163.662 15.0511 163.662 14.2171V11.7278C163.662 11.1012 163.869 10.5932 164.289 10.2037C164.695 9.80575 165.254 9.60254 165.965 9.60254H169.056C169.763 9.60254 170.321 9.80152 170.732 10.2037C171.155 10.5974 171.371 11.1055 171.371 11.7278H171.367ZM166.316 13.0529H168.704C169.479 13.0529 169.868 12.7311 169.868 12.0919V11.8548C169.868 11.2028 169.479 10.8811 168.704 10.8811H166.316C165.55 10.8811 165.165 11.2071 165.165 11.8548V12.0919C165.165 12.7354 165.55 13.0529 166.316 13.0529Z" fill="white"/>
<path d="M39.3736 7.22656V16.8029H37.875V11.7522H32.1978V16.8029H30.6991V7.22656H32.1978V10.4398H37.875V7.22656H39.3736Z" fill="white"/>
<path d="M42.9738 16.8038C42.2753 16.8038 41.7207 16.6091 41.31 16.2153C40.8951 15.8216 40.6835 15.3178 40.6835 14.704V14.1917C40.6835 13.5651 40.8909 13.0571 41.31 12.6676C41.7165 12.2697 42.2711 12.0665 42.9738 12.0665H46.8856V12.0284C46.8856 11.2621 46.4665 10.8768 45.624 10.8768H41.2719V9.60254H45.5986C46.5004 9.60254 47.1862 9.83115 47.6604 10.2884C48.143 10.7287 48.3843 11.3722 48.3843 12.2146V14.7505C48.3843 15.4025 48.1642 15.9148 47.7196 16.2873C47.3217 16.6302 46.7586 16.7996 46.0304 16.7996H42.9696L42.9738 16.8038ZM45.7129 13.3408H43.3379C42.5716 13.3408 42.1864 13.6667 42.1864 14.3145V14.5516C42.1864 15.1951 42.5716 15.5126 43.3379 15.5126H45.7129C46.4961 15.5126 46.8899 15.1908 46.8899 14.5516V14.3145C46.8899 13.6625 46.4961 13.3408 45.7129 13.3408Z" fill="white"/>
<path d="M52.7736 9.60254H54.2469C55.1783 9.60254 55.9149 9.87349 56.4483 10.4154C56.9817 10.9573 57.2485 11.7108 57.2485 12.6761V16.7996H55.7498V12.7481C55.7498 12.1469 55.6312 11.7108 55.3984 11.4357C55.1063 11.0758 54.6872 10.898 54.1368 10.898H52.8625C52.3291 10.898 51.9142 11.0758 51.6136 11.4357C51.3977 11.7108 51.2876 12.1469 51.2876 12.7481V16.7996H49.7889V12.6761C49.7889 11.7108 50.0557 10.9573 50.5891 10.4154C51.1225 9.87349 51.8507 9.60254 52.7778 9.60254H52.7736Z" fill="white"/>
<path d="M64.1634 15.8389C63.6299 16.4824 62.9695 16.7999 62.1778 16.7999H61.2507C60.4167 16.7999 59.7562 16.5374 59.2609 16.0125C58.7952 15.5214 58.5624 14.8228 58.5624 13.9253V9.59863H60.0484V13.938C60.0484 14.463 60.1627 14.8482 60.387 15.0896C60.6453 15.3647 60.984 15.5002 61.3989 15.5002H62.0508C62.4742 15.5002 62.8171 15.3647 63.0753 15.0896C63.3082 14.8482 63.4267 14.463 63.4267 13.938V9.59863H64.9V13.938C64.9 14.463 65.0143 14.8482 65.2387 15.0896C65.4969 15.3647 65.8356 15.5002 66.2505 15.5002H66.9025C67.3258 15.5002 67.6688 15.3647 67.927 15.0896C68.1598 14.8482 68.2784 14.463 68.2784 13.938V9.59863H69.7644V13.9253C69.7644 14.8271 69.523 15.5214 69.0404 16.0125C68.5493 16.5374 67.8804 16.7999 67.0422 16.7999H66.1277C65.353 16.7999 64.6968 16.4782 64.1634 15.8389Z" fill="white"/>
<path d="M74.1612 10.9013C73.6278 10.9013 73.2129 11.0791 72.9123 11.439C72.6964 11.7141 72.5863 12.1502 72.5863 12.7514V16.8029H71.0876V7.20117H72.5863V10.0377C73.0181 9.74554 73.5135 9.6016 74.0723 9.6016H75.5456C76.477 9.6016 77.2136 9.87254 77.747 10.4144C78.2805 10.9563 78.5472 11.7099 78.5472 12.6752V16.7986H77.0485V12.7471C77.0485 12.146 76.9299 11.7099 76.6971 11.4347C76.405 11.0749 75.9859 10.8971 75.4355 10.8971H74.1612V10.9013Z" fill="white"/>
<path d="M82.0734 16.8038C81.3749 16.8038 80.8203 16.6091 80.4096 16.2153C79.9948 15.8216 79.7831 15.3178 79.7831 14.704V14.1917C79.7831 13.5651 79.9905 13.0571 80.4096 12.6676C80.8161 12.2697 81.3707 12.0665 82.0734 12.0665H85.9852V12.0284C85.9852 11.2621 85.5661 10.8768 84.7236 10.8768H80.3715V9.60254H84.6982C85.6 9.60254 86.2858 9.83115 86.76 10.2884C87.2426 10.7287 87.4839 11.3722 87.4839 12.2146V14.7505C87.4839 15.4025 87.2638 15.9148 86.8192 16.2873C86.4213 16.6302 85.8582 16.7996 85.1301 16.7996H82.0692L82.0734 16.8038ZM84.8125 13.3408H82.4375C81.6712 13.3408 81.286 13.6667 81.286 14.3145V14.5516C81.286 15.1951 81.667 15.5126 82.4375 15.5126H84.8125C85.5958 15.5126 85.9895 15.1908 85.9895 14.5516V14.3145C85.9895 13.6625 85.5958 13.3408 84.8125 13.3408Z" fill="white"/>
</g>
<defs>
<clipPath id="clip0_1_508">
<rect width="170.743" height="24" fill="white" transform="translate(0.628571)"/>
</clipPath>
</defs>
</svg>
