<svg width="20" height="20" viewBox="0 0 20 20" fill="none" xmlns="http://www.w3.org/2000/svg">
<path d="M12.7652 5.84138C12.7652 7.32306 11.5159 8.64576 10 8.64576C8.48414 8.64576 7.23485 7.32306 7.23485 5.84138C7.23485 4.33976 8.50303 2.91667 10 2.91667C11.497 2.91667 12.7652 4.33976 12.7652 5.84138ZM17.0833 13.9816C17.0833 14.7576 16.6414 15.5143 15.5176 16.1001C14.3801 16.693 12.5813 17.0835 10 17.0835C7.41871 17.0835 5.61988 16.693 4.48236 16.1001C3.35861 15.5143 2.91667 14.7576 2.91667 13.9816C2.91667 13.2668 3.55016 12.4917 4.87367 11.8708C6.16408 11.2654 7.97606 10.8797 10 10.8797C12.0239 10.8797 13.8359 11.2654 15.1263 11.8708C16.4498 12.4917 17.0833 13.2668 17.0833 13.9816Z" stroke="#CACCCE" stroke-width="0.833333"/>
</svg>
